<svg width="53" height="53" viewBox="0 0 53 53" fill="none" xmlns="http://www.w3.org/2000/svg">
<path d="M36.5 12C37.3284 12 38 11.3284 38 10.5C38 9.67157 37.3284 9 36.5 9C35.6716 9 35 9.67157 35 10.5C35 11.3284 35.6716 12 36.5 12Z" fill="#564CE9"/>
<path d="M36.5 41C37.3284 41 38 40.3284 38 39.5C38 38.6716 37.3284 38 36.5 38C35.6716 38 35 38.6716 35 39.5C35 40.3284 35.6716 41 36.5 41Z" fill="#564CE9"/>
<path d="M33.5 35C34.3284 35 35 34.3284 35 33.5C35 32.6716 34.3284 32 33.5 32C32.6716 32 32 32.6716 32 33.5C32 34.3284 32.6716 35 33.5 35Z" fill="#564CE9"/>
<path d="M30.5 24C31.3284 24 32 23.3284 32 22.5C32 21.6716 31.3284 21 30.5 21C29.6716 21 29 21.6716 29 22.5C29 23.3284 29.6716 24 30.5 24Z" fill="#564CE9"/>
<path d="M33.5 18C34.3284 18 35 17.3284 35 16.5C35 15.6716 34.3284 15 33.5 15C32.6716 15 32 15.6716 32 16.5C32 17.3284 32.6716 18 33.5 18Z" fill="#564CE9"/>
<path d="M30.5 29C31.3284 29 32 28.3284 32 27.5C32 26.6716 31.3284 26 30.5 26C29.6716 26 29 26.6716 29 27.5C29 28.3284 29.6716 29 30.5 29Z" fill="#564CE9"/>
<path d="M13.5 12C14.3284 12 15 11.3284 15 10.5C15 9.67157 14.3284 9 13.5 9C12.6716 9 12 9.67157 12 10.5C12 11.3284 12.6716 12 13.5 12Z" fill="#564CE9"/>
<path d="M13.5 41C14.3284 41 15 40.3284 15 39.5C15 38.6716 14.3284 38 13.5 38C12.6716 38 12 38.6716 12 39.5C12 40.3284 12.6716 41 13.5 41Z" fill="#564CE9"/>
<path d="M16.5 35C17.3284 35 18 34.3284 18 33.5C18 32.6716 17.3284 32 16.5 32C15.6716 32 15 32.6716 15 33.5C15 34.3284 15.6716 35 16.5 35Z" fill="#564CE9"/>
<path d="M19.5 24C20.3284 24 21 23.3284 21 22.5C21 21.6716 20.3284 21 19.5 21C18.6716 21 18 21.6716 18 22.5C18 23.3284 18.6716 24 19.5 24Z" fill="#564CE9"/>
<path d="M16.5 18C17.3284 18 18 17.3284 18 16.5C18 15.6716 17.3284 15 16.5 15C15.6716 15 15 15.6716 15 16.5C15 17.3284 15.6716 18 16.5 18Z" fill="#564CE9"/>
<path d="M19.5 29C20.3284 29 21 28.3284 21 27.5C21 26.6716 20.3284 26 19.5 26C18.6716 26 18 26.6716 18 27.5C18 28.3284 18.6716 29 19.5 29Z" fill="#564CE9"/>
<path fill-rule="evenodd" clip-rule="evenodd" d="M0 25C0 11.1929 11.1929 0 25 0C38.8004 0.0162072 49.9838 11.1996 50 25C50 38.8071 38.8071 50 25 50C11.1929 50 0 38.8071 0 25ZM2.94118 25C2.94118 37.1828 12.8172 47.0588 25 47.0588C30.8504 47.0588 36.4611 44.7348 40.5979 40.5979C44.7348 36.4611 47.0588 30.8504 47.0588 25C47.0588 12.8172 37.1828 2.94118 25 2.94118C12.8172 2.94118 2.94118 12.8172 2.94118 25Z" fill="#564CE9"/>
</svg>
