<svg width="51" height="51" viewBox="0 0 51 51" fill="none" xmlns="http://www.w3.org/2000/svg">
<path fill-rule="evenodd" clip-rule="evenodd" d="M25.5 0C11.4167 0 0 11.4167 0 25.5C0 39.5833 11.4167 51 25.5 51C39.5833 51 51 39.5833 51 25.5C50.9835 11.4236 39.5764 0.0165313 25.5 0ZM48 27C47.766 30.8531 46.5247 34.5772 44.4 37.8C40.0835 35.689 36.9835 31.7033 36 27H48ZM44.19 13.2C39.9541 15.3605 36.9376 19.3383 36 24H48C47.7034 20.1273 46.389 16.4016 44.19 13.2ZM42.39 10.8C37.3863 13.5102 33.9191 18.3842 33 24H27V3C33.0035 3.427 38.5874 6.23518 42.51 10.8H42.39ZM24 24V3C17.9965 3.427 12.4126 6.23518 8.49 10.8C13.5397 13.4823 17.0545 18.3608 18 24H24ZM3 24C3.23397 20.1469 4.47534 16.4228 6.6 13.2C10.9165 15.311 14.0165 19.2967 15 24H3ZM6.81 37.8C11.0459 35.6395 14.0624 31.6617 15 27H3C3.29663 30.8727 4.61096 34.5984 6.81 37.8ZM8.49 40.2C13.5397 37.5177 17.0545 32.6392 18 27H24V48C17.992 47.5895 12.402 44.7783 8.49 40.2ZM27 27V48C32.9654 47.5582 38.5066 44.7498 42.39 40.2C37.3863 37.4898 33.9191 32.6158 33 27H27Z" fill="#564CE9"/>
</svg>
