<svg width="50" height="48" viewBox="0 0 50 48" fill="none" xmlns="http://www.w3.org/2000/svg">
<path fill-rule="evenodd" clip-rule="evenodd" d="M45.6905 6.24489C45.3693 3.09948 42.8209 0.615581 39.6068 0.315151C31.6033 -0.452539 16.8941 -0.452539 8.13356 7.93911C-0.627031 16.3308 -0.437759 30.9169 0.346367 38.7526C0.65323 41.8994 3.19032 44.3944 6.40307 44.7088C8.26875 44.8676 10.4859 45 12.8924 45C21.004 45 31.1166 43.5176 37.7952 37.0584C46.4746 28.4814 46.4476 14.0806 45.6905 6.24489ZM10.1344 9.89804C16.2452 4.02124 25.6007 2.64469 33.0904 2.64469C35.4158 2.64469 37.5518 2.77705 39.3364 2.93589C39.8046 2.98699 40.2611 3.11216 40.6883 3.30649L28.4127 15.3248L23.9783 10.9834C23.6354 10.6477 23.1356 10.5165 22.6671 10.6394C22.1986 10.7623 21.8327 11.1205 21.7072 11.5792C21.5817 12.0378 21.7156 12.5272 22.0586 12.8629L26.52 17.2043L23.0049 20.6192L18.5706 16.2778C18.0404 15.7588 17.1809 15.7588 16.6508 16.2778C16.1207 16.7968 16.1207 17.6383 16.6508 18.1573L21.1122 22.4987L17.5972 25.9136L13.1628 21.5722C12.8198 21.2365 12.32 21.1054 11.8516 21.2282C11.3831 21.3511 11.0172 21.7094 10.8917 22.168C10.7662 22.6266 10.9001 23.116 11.243 23.4517L15.7044 27.7932L3.40176 39.7056C3.20326 39.2873 3.07542 38.8403 3.02321 38.382C2.29316 31.1286 2.23909 17.6279 10.1344 9.89804ZM6.67346 42.0616C14.2443 42.7763 28.0071 42.8293 35.8754 35.0994C43.7708 27.3696 43.7167 13.8688 42.9866 6.6155C42.9471 6.15483 42.8187 5.70568 42.6081 5.2919L30.3325 17.2043L34.7939 21.5722C35.3124 22.0959 35.3124 22.9281 34.7939 23.4517C34.5272 23.6885 34.1805 23.8205 33.8205 23.8223C33.4632 23.8203 33.122 23.6771 32.8741 23.4253L28.4127 19.0838L24.9247 22.4987L29.3861 26.8666C29.9047 27.3903 29.9047 28.2225 29.3861 28.7462C29.1194 28.983 28.7727 29.1149 28.4127 29.1168C28.0555 29.1147 27.7142 28.9715 27.4663 28.7197L23.0049 24.3783L19.5169 27.7932L23.9783 32.161C24.4969 32.6847 24.4969 33.5169 23.9783 34.0406C23.7116 34.2774 23.365 34.4094 23.0049 34.4112C22.6477 34.4091 22.3064 34.2659 22.0586 34.0141L17.5972 29.6727L5.32152 41.691C5.74871 41.8853 6.2053 42.0105 6.67346 42.0616Z" fill="#564CE9"/>
</svg>
