<svg width="339" height="182" viewBox="0 0 339 182" fill="none" xmlns="http://www.w3.org/2000/svg">
<path d="M13.326 21.89C13.326 22.198 13.208 22.46 12.972 22.676C12.736 22.888 12.39 23.006 11.934 23.03V23.72H11.634V23.036C11.342 23.02 11.066 22.964 10.806 22.868C10.55 22.768 10.348 22.642 10.2 22.49L10.374 22.148C10.514 22.284 10.696 22.398 10.92 22.49C11.148 22.582 11.386 22.636 11.634 22.652V21.074C11.358 21.006 11.128 20.934 10.944 20.858C10.76 20.778 10.606 20.664 10.482 20.516C10.362 20.364 10.302 20.164 10.302 19.916C10.302 19.608 10.414 19.35 10.638 19.142C10.862 18.93 11.194 18.806 11.634 18.77V18.08H11.934V18.764C12.162 18.772 12.382 18.81 12.594 18.878C12.81 18.942 12.996 19.028 13.152 19.136L13.002 19.49C12.838 19.386 12.664 19.304 12.48 19.244C12.296 19.184 12.114 19.15 11.934 19.142V20.732C12.23 20.804 12.472 20.878 12.66 20.954C12.848 21.026 13.006 21.138 13.134 21.29C13.262 21.442 13.326 21.642 13.326 21.89ZM10.74 19.904C10.74 20.112 10.816 20.27 10.968 20.378C11.124 20.486 11.346 20.578 11.634 20.654V19.154C11.338 19.178 11.114 19.26 10.962 19.4C10.814 19.536 10.74 19.704 10.74 19.904ZM11.934 22.652C12.25 22.628 12.488 22.55 12.648 22.418C12.808 22.286 12.888 22.118 12.888 21.914C12.888 21.698 12.806 21.536 12.642 21.428C12.478 21.32 12.242 21.228 11.934 21.152V22.652ZM16.8268 18.8V19.106L15.0688 23H14.6008L16.3288 19.184H14.1688V19.97H13.7428V18.8H16.8268ZM18.9528 23.036C18.6288 23.036 18.3388 22.95 18.0828 22.778C17.8308 22.606 17.6328 22.36 17.4888 22.04C17.3488 21.716 17.2788 21.336 17.2788 20.9C17.2788 20.464 17.3488 20.086 17.4888 19.766C17.6328 19.442 17.8308 19.194 18.0828 19.022C18.3388 18.85 18.6288 18.764 18.9528 18.764C19.2768 18.764 19.5648 18.85 19.8168 19.022C20.0728 19.194 20.2728 19.442 20.4168 19.766C20.5608 20.086 20.6328 20.464 20.6328 20.9C20.6328 21.336 20.5608 21.716 20.4168 22.04C20.2728 22.36 20.0728 22.606 19.8168 22.778C19.5648 22.95 19.2768 23.036 18.9528 23.036ZM18.9528 22.64C19.1968 22.64 19.4108 22.572 19.5948 22.436C19.7828 22.3 19.9288 22.102 20.0328 21.842C20.1368 21.582 20.1888 21.268 20.1888 20.9C20.1888 20.532 20.1368 20.218 20.0328 19.958C19.9288 19.698 19.7828 19.5 19.5948 19.364C19.4108 19.228 19.1968 19.16 18.9528 19.16C18.7088 19.16 18.4928 19.228 18.3048 19.364C18.1208 19.5 17.9768 19.698 17.8728 19.958C17.7688 20.218 17.7168 20.532 17.7168 20.9C17.7168 21.268 17.7688 21.582 17.8728 21.842C17.9768 22.102 18.1208 22.3 18.3048 22.436C18.4928 22.572 18.7088 22.64 18.9528 22.64ZM22.9255 23.036C22.6015 23.036 22.3115 22.95 22.0555 22.778C21.8035 22.606 21.6055 22.36 21.4615 22.04C21.3215 21.716 21.2515 21.336 21.2515 20.9C21.2515 20.464 21.3215 20.086 21.4615 19.766C21.6055 19.442 21.8035 19.194 22.0555 19.022C22.3115 18.85 22.6015 18.764 22.9255 18.764C23.2495 18.764 23.5375 18.85 23.7895 19.022C24.0455 19.194 24.2455 19.442 24.3895 19.766C24.5335 20.086 24.6055 20.464 24.6055 20.9C24.6055 21.336 24.5335 21.716 24.3895 22.04C24.2455 22.36 24.0455 22.606 23.7895 22.778C23.5375 22.95 23.2495 23.036 22.9255 23.036ZM22.9255 22.64C23.1695 22.64 23.3835 22.572 23.5675 22.436C23.7555 22.3 23.9015 22.102 24.0055 21.842C24.1095 21.582 24.1615 21.268 24.1615 20.9C24.1615 20.532 24.1095 20.218 24.0055 19.958C23.9015 19.698 23.7555 19.5 23.5675 19.364C23.3835 19.228 23.1695 19.16 22.9255 19.16C22.6815 19.16 22.4655 19.228 22.2775 19.364C22.0935 19.5 21.9495 19.698 21.8455 19.958C21.7415 20.218 21.6895 20.532 21.6895 20.9C21.6895 21.268 21.7415 21.582 21.8455 21.842C21.9495 22.102 22.0935 22.3 22.2775 22.436C22.4655 22.572 22.6815 22.64 22.9255 22.64ZM25.4837 23.03C25.3957 23.03 25.3197 22.998 25.2557 22.934C25.1957 22.87 25.1657 22.792 25.1657 22.7C25.1657 22.608 25.1957 22.532 25.2557 22.472C25.3197 22.408 25.3957 22.376 25.4837 22.376C25.5717 22.376 25.6477 22.408 25.7117 22.472C25.7757 22.532 25.8077 22.608 25.8077 22.7C25.8077 22.792 25.7757 22.87 25.7117 22.934C25.6477 22.998 25.5717 23.03 25.4837 23.03ZM28.0407 23.036C27.7167 23.036 27.4267 22.95 27.1707 22.778C26.9187 22.606 26.7207 22.36 26.5767 22.04C26.4367 21.716 26.3667 21.336 26.3667 20.9C26.3667 20.464 26.4367 20.086 26.5767 19.766C26.7207 19.442 26.9187 19.194 27.1707 19.022C27.4267 18.85 27.7167 18.764 28.0407 18.764C28.3647 18.764 28.6527 18.85 28.9047 19.022C29.1607 19.194 29.3607 19.442 29.5047 19.766C29.6487 20.086 29.7207 20.464 29.7207 20.9C29.7207 21.336 29.6487 21.716 29.5047 22.04C29.3607 22.36 29.1607 22.606 28.9047 22.778C28.6527 22.95 28.3647 23.036 28.0407 23.036ZM28.0407 22.64C28.2847 22.64 28.4987 22.572 28.6827 22.436C28.8707 22.3 29.0167 22.102 29.1207 21.842C29.2247 21.582 29.2767 21.268 29.2767 20.9C29.2767 20.532 29.2247 20.218 29.1207 19.958C29.0167 19.698 28.8707 19.5 28.6827 19.364C28.4987 19.228 28.2847 19.16 28.0407 19.16C27.7967 19.16 27.5807 19.228 27.3927 19.364C27.2087 19.5 27.0647 19.698 26.9607 19.958C26.8567 20.218 26.8047 20.532 26.8047 20.9C26.8047 21.268 26.8567 21.582 26.9607 21.842C27.0647 22.102 27.2087 22.3 27.3927 22.436C27.5807 22.572 27.7967 22.64 28.0407 22.64ZM32.0133 23.036C31.6893 23.036 31.3993 22.95 31.1433 22.778C30.8913 22.606 30.6933 22.36 30.5493 22.04C30.4093 21.716 30.3393 21.336 30.3393 20.9C30.3393 20.464 30.4093 20.086 30.5493 19.766C30.6933 19.442 30.8913 19.194 31.1433 19.022C31.3993 18.85 31.6893 18.764 32.0133 18.764C32.3373 18.764 32.6253 18.85 32.8773 19.022C33.1333 19.194 33.3333 19.442 33.4773 19.766C33.6213 20.086 33.6933 20.464 33.6933 20.9C33.6933 21.336 33.6213 21.716 33.4773 22.04C33.3333 22.36 33.1333 22.606 32.8773 22.778C32.6253 22.95 32.3373 23.036 32.0133 23.036ZM32.0133 22.64C32.2573 22.64 32.4713 22.572 32.6553 22.436C32.8433 22.3 32.9893 22.102 33.0933 21.842C33.1973 21.582 33.2493 21.268 33.2493 20.9C33.2493 20.532 33.1973 20.218 33.0933 19.958C32.9893 19.698 32.8433 19.5 32.6553 19.364C32.4713 19.228 32.2573 19.16 32.0133 19.16C31.7693 19.16 31.5533 19.228 31.3653 19.364C31.1813 19.5 31.0373 19.698 30.9333 19.958C30.8293 20.218 30.7773 20.532 30.7773 20.9C30.7773 21.268 30.8293 21.582 30.9333 21.842C31.0373 22.102 31.1813 22.3 31.3653 22.436C31.5533 22.572 31.7693 22.64 32.0133 22.64ZM13.0271 35.89C13.0271 36.198 12.9091 36.46 12.6731 36.676C12.4371 36.888 12.0911 37.006 11.6351 37.03V37.72H11.3351V37.036C11.0431 37.02 10.7671 36.964 10.5071 36.868C10.2511 36.768 10.0491 36.642 9.90114 36.49L10.0751 36.148C10.2151 36.284 10.3971 36.398 10.6211 36.49C10.8491 36.582 11.0871 36.636 11.3351 36.652V35.074C11.0591 35.006 10.8291 34.934 10.6451 34.858C10.4611 34.778 10.3071 34.664 10.1831 34.516C10.0631 34.364 10.0031 34.164 10.0031 33.916C10.0031 33.608 10.1151 33.35 10.3391 33.142C10.5631 32.93 10.8951 32.806 11.3351 32.77V32.08H11.6351V32.764C11.8631 32.772 12.0831 32.81 12.2951 32.878C12.5111 32.942 12.6971 33.028 12.8531 33.136L12.7031 33.49C12.5391 33.386 12.3651 33.304 12.1811 33.244C11.9971 33.184 11.8151 33.15 11.6351 33.142V34.732C11.9311 34.804 12.1731 34.878 12.3611 34.954C12.5491 35.026 12.7071 35.138 12.8351 35.29C12.9631 35.442 13.0271 35.642 13.0271 35.89ZM10.4411 33.904C10.4411 34.112 10.5171 34.27 10.6691 34.378C10.8251 34.486 11.0471 34.578 11.3351 34.654V33.154C11.0391 33.178 10.8151 33.26 10.6631 33.4C10.5151 33.536 10.4411 33.704 10.4411 33.904ZM11.6351 36.652C11.9511 36.628 12.1891 36.55 12.3491 36.418C12.5091 36.286 12.5891 36.118 12.5891 35.914C12.5891 35.698 12.5071 35.536 12.3431 35.428C12.1791 35.32 11.9431 35.228 11.6351 35.152V36.652ZM15.3625 34.486C15.6385 34.486 15.8825 34.538 16.0945 34.642C16.3105 34.746 16.4785 34.894 16.5985 35.086C16.7185 35.274 16.7785 35.494 16.7785 35.746C16.7785 36.002 16.7165 36.228 16.5925 36.424C16.4685 36.62 16.2965 36.772 16.0765 36.88C15.8605 36.984 15.6165 37.036 15.3445 37.036C14.7885 37.036 14.3625 36.854 14.0665 36.49C13.7705 36.122 13.6225 35.604 13.6225 34.936C13.6225 34.468 13.7025 34.072 13.8625 33.748C14.0225 33.424 14.2465 33.18 14.5345 33.016C14.8225 32.848 15.1585 32.764 15.5425 32.764C15.9585 32.764 16.2905 32.84 16.5385 32.992L16.3645 33.34C16.1645 33.208 15.8925 33.142 15.5485 33.142C15.0845 33.142 14.7205 33.29 14.4565 33.586C14.1925 33.878 14.0605 34.304 14.0605 34.864C14.0605 34.964 14.0665 35.078 14.0785 35.206C14.1825 34.978 14.3485 34.802 14.5765 34.678C14.8045 34.55 15.0665 34.486 15.3625 34.486ZM15.3265 36.67C15.6305 36.67 15.8765 36.588 16.0645 36.424C16.2565 36.256 16.3525 36.034 16.3525 35.758C16.3525 35.482 16.2565 35.262 16.0645 35.098C15.8765 34.934 15.6205 34.852 15.2965 34.852C15.0845 34.852 14.8965 34.892 14.7325 34.972C14.5725 35.052 14.4465 35.162 14.3545 35.302C14.2625 35.442 14.2165 35.598 14.2165 35.77C14.2165 35.93 14.2585 36.078 14.3425 36.214C14.4305 36.35 14.5585 36.46 14.7265 36.544C14.8945 36.628 15.0945 36.67 15.3265 36.67ZM18.9528 37.036C18.6288 37.036 18.3388 36.95 18.0828 36.778C17.8308 36.606 17.6328 36.36 17.4888 36.04C17.3488 35.716 17.2788 35.336 17.2788 34.9C17.2788 34.464 17.3488 34.086 17.4888 33.766C17.6328 33.442 17.8308 33.194 18.0828 33.022C18.3388 32.85 18.6288 32.764 18.9528 32.764C19.2768 32.764 19.5648 32.85 19.8168 33.022C20.0728 33.194 20.2728 33.442 20.4168 33.766C20.5608 34.086 20.6328 34.464 20.6328 34.9C20.6328 35.336 20.5608 35.716 20.4168 36.04C20.2728 36.36 20.0728 36.606 19.8168 36.778C19.5648 36.95 19.2768 37.036 18.9528 37.036ZM18.9528 36.64C19.1968 36.64 19.4108 36.572 19.5948 36.436C19.7828 36.3 19.9288 36.102 20.0328 35.842C20.1368 35.582 20.1888 35.268 20.1888 34.9C20.1888 34.532 20.1368 34.218 20.0328 33.958C19.9288 33.698 19.7828 33.5 19.5948 33.364C19.4108 33.228 19.1968 33.16 18.9528 33.16C18.7088 33.16 18.4928 33.228 18.3048 33.364C18.1208 33.5 17.9768 33.698 17.8728 33.958C17.7688 34.218 17.7168 34.532 17.7168 34.9C17.7168 35.268 17.7688 35.582 17.8728 35.842C17.9768 36.102 18.1208 36.3 18.3048 36.436C18.4928 36.572 18.7088 36.64 18.9528 36.64ZM22.9255 37.036C22.6015 37.036 22.3115 36.95 22.0555 36.778C21.8035 36.606 21.6055 36.36 21.4615 36.04C21.3215 35.716 21.2515 35.336 21.2515 34.9C21.2515 34.464 21.3215 34.086 21.4615 33.766C21.6055 33.442 21.8035 33.194 22.0555 33.022C22.3115 32.85 22.6015 32.764 22.9255 32.764C23.2495 32.764 23.5375 32.85 23.7895 33.022C24.0455 33.194 24.2455 33.442 24.3895 33.766C24.5335 34.086 24.6055 34.464 24.6055 34.9C24.6055 35.336 24.5335 35.716 24.3895 36.04C24.2455 36.36 24.0455 36.606 23.7895 36.778C23.5375 36.95 23.2495 37.036 22.9255 37.036ZM22.9255 36.64C23.1695 36.64 23.3835 36.572 23.5675 36.436C23.7555 36.3 23.9015 36.102 24.0055 35.842C24.1095 35.582 24.1615 35.268 24.1615 34.9C24.1615 34.532 24.1095 34.218 24.0055 33.958C23.9015 33.698 23.7555 33.5 23.5675 33.364C23.3835 33.228 23.1695 33.16 22.9255 33.16C22.6815 33.16 22.4655 33.228 22.2775 33.364C22.0935 33.5 21.9495 33.698 21.8455 33.958C21.7415 34.218 21.6895 34.532 21.6895 34.9C21.6895 35.268 21.7415 35.582 21.8455 35.842C21.9495 36.102 22.0935 36.3 22.2775 36.436C22.4655 36.572 22.6815 36.64 22.9255 36.64ZM25.4837 37.03C25.3957 37.03 25.3197 36.998 25.2557 36.934C25.1957 36.87 25.1657 36.792 25.1657 36.7C25.1657 36.608 25.1957 36.532 25.2557 36.472C25.3197 36.408 25.3957 36.376 25.4837 36.376C25.5717 36.376 25.6477 36.408 25.7117 36.472C25.7757 36.532 25.8077 36.608 25.8077 36.7C25.8077 36.792 25.7757 36.87 25.7117 36.934C25.6477 36.998 25.5717 37.03 25.4837 37.03ZM28.0407 37.036C27.7167 37.036 27.4267 36.95 27.1707 36.778C26.9187 36.606 26.7207 36.36 26.5767 36.04C26.4367 35.716 26.3667 35.336 26.3667 34.9C26.3667 34.464 26.4367 34.086 26.5767 33.766C26.7207 33.442 26.9187 33.194 27.1707 33.022C27.4267 32.85 27.7167 32.764 28.0407 32.764C28.3647 32.764 28.6527 32.85 28.9047 33.022C29.1607 33.194 29.3607 33.442 29.5047 33.766C29.6487 34.086 29.7207 34.464 29.7207 34.9C29.7207 35.336 29.6487 35.716 29.5047 36.04C29.3607 36.36 29.1607 36.606 28.9047 36.778C28.6527 36.95 28.3647 37.036 28.0407 37.036ZM28.0407 36.64C28.2847 36.64 28.4987 36.572 28.6827 36.436C28.8707 36.3 29.0167 36.102 29.1207 35.842C29.2247 35.582 29.2767 35.268 29.2767 34.9C29.2767 34.532 29.2247 34.218 29.1207 33.958C29.0167 33.698 28.8707 33.5 28.6827 33.364C28.4987 33.228 28.2847 33.16 28.0407 33.16C27.7967 33.16 27.5807 33.228 27.3927 33.364C27.2087 33.5 27.0647 33.698 26.9607 33.958C26.8567 34.218 26.8047 34.532 26.8047 34.9C26.8047 35.268 26.8567 35.582 26.9607 35.842C27.0647 36.102 27.2087 36.3 27.3927 36.436C27.5807 36.572 27.7967 36.64 28.0407 36.64ZM32.0133 37.036C31.6893 37.036 31.3993 36.95 31.1433 36.778C30.8913 36.606 30.6933 36.36 30.5493 36.04C30.4093 35.716 30.3393 35.336 30.3393 34.9C30.3393 34.464 30.4093 34.086 30.5493 33.766C30.6933 33.442 30.8913 33.194 31.1433 33.022C31.3993 32.85 31.6893 32.764 32.0133 32.764C32.3373 32.764 32.6253 32.85 32.8773 33.022C33.1333 33.194 33.3333 33.442 33.4773 33.766C33.6213 34.086 33.6933 34.464 33.6933 34.9C33.6933 35.336 33.6213 35.716 33.4773 36.04C33.3333 36.36 33.1333 36.606 32.8773 36.778C32.6253 36.95 32.3373 37.036 32.0133 37.036ZM32.0133 36.64C32.2573 36.64 32.4713 36.572 32.6553 36.436C32.8433 36.3 32.9893 36.102 33.0933 35.842C33.1973 35.582 33.2493 35.268 33.2493 34.9C33.2493 34.532 33.1973 34.218 33.0933 33.958C32.9893 33.698 32.8433 33.5 32.6553 33.364C32.4713 33.228 32.2573 33.16 32.0133 33.16C31.7693 33.16 31.5533 33.228 31.3653 33.364C31.1813 33.5 31.0373 33.698 30.9333 33.958C30.8293 34.218 30.7773 34.532 30.7773 34.9C30.7773 35.268 30.8293 35.582 30.9333 35.842C31.0373 36.102 31.1813 36.3 31.3653 36.436C31.5533 36.572 31.7693 36.64 32.0133 36.64ZM13.285 49.89C13.285 50.198 13.167 50.46 12.931 50.676C12.695 50.888 12.349 51.006 11.893 51.03V51.72H11.593V51.036C11.301 51.02 11.025 50.964 10.765 50.868C10.509 50.768 10.307 50.642 10.159 50.49L10.333 50.148C10.473 50.284 10.655 50.398 10.879 50.49C11.107 50.582 11.345 50.636 11.593 50.652V49.074C11.317 49.006 11.087 48.934 10.903 48.858C10.719 48.778 10.565 48.664 10.441 48.516C10.321 48.364 10.261 48.164 10.261 47.916C10.261 47.608 10.373 47.35 10.597 47.142C10.821 46.93 11.153 46.806 11.593 46.77V46.08H11.893V46.764C12.121 46.772 12.341 46.81 12.553 46.878C12.769 46.942 12.955 47.028 13.111 47.136L12.961 47.49C12.797 47.386 12.623 47.304 12.439 47.244C12.255 47.184 12.073 47.15 11.893 47.142V48.732C12.189 48.804 12.431 48.878 12.619 48.954C12.807 49.026 12.965 49.138 13.093 49.29C13.221 49.442 13.285 49.642 13.285 49.89ZM10.699 47.904C10.699 48.112 10.775 48.27 10.927 48.378C11.083 48.486 11.305 48.578 11.593 48.654V47.154C11.297 47.178 11.073 47.26 10.921 47.4C10.773 47.536 10.699 47.704 10.699 47.904ZM11.893 50.652C12.209 50.628 12.447 50.55 12.607 50.418C12.767 50.286 12.847 50.118 12.847 49.914C12.847 49.698 12.765 49.536 12.601 49.428C12.437 49.32 12.201 49.228 11.893 49.152V50.652ZM14.9844 48.522C15.5924 48.522 16.0344 48.632 16.3104 48.852C16.5904 49.068 16.7304 49.372 16.7304 49.764C16.7304 50.008 16.6724 50.226 16.5564 50.418C16.4444 50.61 16.2744 50.762 16.0464 50.874C15.8184 50.982 15.5384 51.036 15.2064 51.036C14.9064 51.036 14.6204 50.988 14.3484 50.892C14.0804 50.792 13.8644 50.66 13.7004 50.496L13.9104 50.154C14.0504 50.298 14.2344 50.416 14.4624 50.508C14.6904 50.596 14.9364 50.64 15.2004 50.64C15.5484 50.64 15.8164 50.562 16.0044 50.406C16.1964 50.25 16.2924 50.042 16.2924 49.782C16.2924 49.494 16.1844 49.276 15.9684 49.128C15.7564 48.98 15.3964 48.906 14.8884 48.906H13.9944L14.2104 46.8H16.5084V47.184H14.5884L14.4444 48.522H14.9844ZM18.9528 51.036C18.6288 51.036 18.3388 50.95 18.0828 50.778C17.8308 50.606 17.6328 50.36 17.4888 50.04C17.3488 49.716 17.2788 49.336 17.2788 48.9C17.2788 48.464 17.3488 48.086 17.4888 47.766C17.6328 47.442 17.8308 47.194 18.0828 47.022C18.3388 46.85 18.6288 46.764 18.9528 46.764C19.2768 46.764 19.5648 46.85 19.8168 47.022C20.0728 47.194 20.2728 47.442 20.4168 47.766C20.5608 48.086 20.6328 48.464 20.6328 48.9C20.6328 49.336 20.5608 49.716 20.4168 50.04C20.2728 50.36 20.0728 50.606 19.8168 50.778C19.5648 50.95 19.2768 51.036 18.9528 51.036ZM18.9528 50.64C19.1968 50.64 19.4108 50.572 19.5948 50.436C19.7828 50.3 19.9288 50.102 20.0328 49.842C20.1368 49.582 20.1888 49.268 20.1888 48.9C20.1888 48.532 20.1368 48.218 20.0328 47.958C19.9288 47.698 19.7828 47.5 19.5948 47.364C19.4108 47.228 19.1968 47.16 18.9528 47.16C18.7088 47.16 18.4928 47.228 18.3048 47.364C18.1208 47.5 17.9768 47.698 17.8728 47.958C17.7688 48.218 17.7168 48.532 17.7168 48.9C17.7168 49.268 17.7688 49.582 17.8728 49.842C17.9768 50.102 18.1208 50.3 18.3048 50.436C18.4928 50.572 18.7088 50.64 18.9528 50.64ZM22.9255 51.036C22.6015 51.036 22.3115 50.95 22.0555 50.778C21.8035 50.606 21.6055 50.36 21.4615 50.04C21.3215 49.716 21.2515 49.336 21.2515 48.9C21.2515 48.464 21.3215 48.086 21.4615 47.766C21.6055 47.442 21.8035 47.194 22.0555 47.022C22.3115 46.85 22.6015 46.764 22.9255 46.764C23.2495 46.764 23.5375 46.85 23.7895 47.022C24.0455 47.194 24.2455 47.442 24.3895 47.766C24.5335 48.086 24.6055 48.464 24.6055 48.9C24.6055 49.336 24.5335 49.716 24.3895 50.04C24.2455 50.36 24.0455 50.606 23.7895 50.778C23.5375 50.95 23.2495 51.036 22.9255 51.036ZM22.9255 50.64C23.1695 50.64 23.3835 50.572 23.5675 50.436C23.7555 50.3 23.9015 50.102 24.0055 49.842C24.1095 49.582 24.1615 49.268 24.1615 48.9C24.1615 48.532 24.1095 48.218 24.0055 47.958C23.9015 47.698 23.7555 47.5 23.5675 47.364C23.3835 47.228 23.1695 47.16 22.9255 47.16C22.6815 47.16 22.4655 47.228 22.2775 47.364C22.0935 47.5 21.9495 47.698 21.8455 47.958C21.7415 48.218 21.6895 48.532 21.6895 48.9C21.6895 49.268 21.7415 49.582 21.8455 49.842C21.9495 50.102 22.0935 50.3 22.2775 50.436C22.4655 50.572 22.6815 50.64 22.9255 50.64ZM25.4837 51.03C25.3957 51.03 25.3197 50.998 25.2557 50.934C25.1957 50.87 25.1657 50.792 25.1657 50.7C25.1657 50.608 25.1957 50.532 25.2557 50.472C25.3197 50.408 25.3957 50.376 25.4837 50.376C25.5717 50.376 25.6477 50.408 25.7117 50.472C25.7757 50.532 25.8077 50.608 25.8077 50.7C25.8077 50.792 25.7757 50.87 25.7117 50.934C25.6477 50.998 25.5717 51.03 25.4837 51.03ZM28.0407 51.036C27.7167 51.036 27.4267 50.95 27.1707 50.778C26.9187 50.606 26.7207 50.36 26.5767 50.04C26.4367 49.716 26.3667 49.336 26.3667 48.9C26.3667 48.464 26.4367 48.086 26.5767 47.766C26.7207 47.442 26.9187 47.194 27.1707 47.022C27.4267 46.85 27.7167 46.764 28.0407 46.764C28.3647 46.764 28.6527 46.85 28.9047 47.022C29.1607 47.194 29.3607 47.442 29.5047 47.766C29.6487 48.086 29.7207 48.464 29.7207 48.9C29.7207 49.336 29.6487 49.716 29.5047 50.04C29.3607 50.36 29.1607 50.606 28.9047 50.778C28.6527 50.95 28.3647 51.036 28.0407 51.036ZM28.0407 50.64C28.2847 50.64 28.4987 50.572 28.6827 50.436C28.8707 50.3 29.0167 50.102 29.1207 49.842C29.2247 49.582 29.2767 49.268 29.2767 48.9C29.2767 48.532 29.2247 48.218 29.1207 47.958C29.0167 47.698 28.8707 47.5 28.6827 47.364C28.4987 47.228 28.2847 47.16 28.0407 47.16C27.7967 47.16 27.5807 47.228 27.3927 47.364C27.2087 47.5 27.0647 47.698 26.9607 47.958C26.8567 48.218 26.8047 48.532 26.8047 48.9C26.8047 49.268 26.8567 49.582 26.9607 49.842C27.0647 50.102 27.2087 50.3 27.3927 50.436C27.5807 50.572 27.7967 50.64 28.0407 50.64ZM32.0133 51.036C31.6893 51.036 31.3993 50.95 31.1433 50.778C30.8913 50.606 30.6933 50.36 30.5493 50.04C30.4093 49.716 30.3393 49.336 30.3393 48.9C30.3393 48.464 30.4093 48.086 30.5493 47.766C30.6933 47.442 30.8913 47.194 31.1433 47.022C31.3993 46.85 31.6893 46.764 32.0133 46.764C32.3373 46.764 32.6253 46.85 32.8773 47.022C33.1333 47.194 33.3333 47.442 33.4773 47.766C33.6213 48.086 33.6933 48.464 33.6933 48.9C33.6933 49.336 33.6213 49.716 33.4773 50.04C33.3333 50.36 33.1333 50.606 32.8773 50.778C32.6253 50.95 32.3373 51.036 32.0133 51.036ZM32.0133 50.64C32.2573 50.64 32.4713 50.572 32.6553 50.436C32.8433 50.3 32.9893 50.102 33.0933 49.842C33.1973 49.582 33.2493 49.268 33.2493 48.9C33.2493 48.532 33.1973 48.218 33.0933 47.958C32.9893 47.698 32.8433 47.5 32.6553 47.364C32.4713 47.228 32.2573 47.16 32.0133 47.16C31.7693 47.16 31.5533 47.228 31.3653 47.364C31.1813 47.5 31.0373 47.698 30.9333 47.958C30.8293 48.218 30.7773 48.532 30.7773 48.9C30.7773 49.268 30.8293 49.582 30.9333 49.842C31.0373 50.102 31.1813 50.3 31.3653 50.436C31.5533 50.572 31.7693 50.64 32.0133 50.64ZM12.658 63.89C12.658 64.198 12.54 64.46 12.304 64.676C12.068 64.888 11.722 65.006 11.266 65.03V65.72H10.966V65.036C10.674 65.02 10.398 64.964 10.138 64.868C9.882 64.768 9.68 64.642 9.532 64.49L9.706 64.148C9.846 64.284 10.028 64.398 10.252 64.49C10.48 64.582 10.718 64.636 10.966 64.652V63.074C10.69 63.006 10.46 62.934 10.276 62.858C10.092 62.778 9.938 62.664 9.814 62.516C9.694 62.364 9.634 62.164 9.634 61.916C9.634 61.608 9.746 61.35 9.97 61.142C10.194 60.93 10.526 60.806 10.966 60.77V60.08H11.266V60.764C11.494 60.772 11.714 60.81 11.926 60.878C12.142 60.942 12.328 61.028 12.484 61.136L12.334 61.49C12.17 61.386 11.996 61.304 11.812 61.244C11.628 61.184 11.446 61.15 11.266 61.142V62.732C11.562 62.804 11.804 62.878 11.992 62.954C12.18 63.026 12.338 63.138 12.466 63.29C12.594 63.442 12.658 63.642 12.658 63.89ZM10.072 61.904C10.072 62.112 10.148 62.27 10.3 62.378C10.456 62.486 10.678 62.578 10.966 62.654V61.154C10.67 61.178 10.446 61.26 10.294 61.4C10.146 61.536 10.072 61.704 10.072 61.904ZM11.266 64.652C11.582 64.628 11.82 64.55 11.98 64.418C12.14 64.286 12.22 64.118 12.22 63.914C12.22 63.698 12.138 63.536 11.974 63.428C11.81 63.32 11.574 63.228 11.266 63.152V64.652ZM16.882 63.896H16.042V65H15.61V63.896H13.24V63.584L15.466 60.8H15.946L13.798 63.512H15.622V62.54H16.042V63.512H16.882V63.896ZM18.9528 65.036C18.6288 65.036 18.3388 64.95 18.0828 64.778C17.8308 64.606 17.6328 64.36 17.4888 64.04C17.3488 63.716 17.2788 63.336 17.2788 62.9C17.2788 62.464 17.3488 62.086 17.4888 61.766C17.6328 61.442 17.8308 61.194 18.0828 61.022C18.3388 60.85 18.6288 60.764 18.9528 60.764C19.2768 60.764 19.5648 60.85 19.8168 61.022C20.0728 61.194 20.2728 61.442 20.4168 61.766C20.5608 62.086 20.6328 62.464 20.6328 62.9C20.6328 63.336 20.5608 63.716 20.4168 64.04C20.2728 64.36 20.0728 64.606 19.8168 64.778C19.5648 64.95 19.2768 65.036 18.9528 65.036ZM18.9528 64.64C19.1968 64.64 19.4108 64.572 19.5948 64.436C19.7828 64.3 19.9288 64.102 20.0328 63.842C20.1368 63.582 20.1888 63.268 20.1888 62.9C20.1888 62.532 20.1368 62.218 20.0328 61.958C19.9288 61.698 19.7828 61.5 19.5948 61.364C19.4108 61.228 19.1968 61.16 18.9528 61.16C18.7088 61.16 18.4928 61.228 18.3048 61.364C18.1208 61.5 17.9768 61.698 17.8728 61.958C17.7688 62.218 17.7168 62.532 17.7168 62.9C17.7168 63.268 17.7688 63.582 17.8728 63.842C17.9768 64.102 18.1208 64.3 18.3048 64.436C18.4928 64.572 18.7088 64.64 18.9528 64.64ZM22.9255 65.036C22.6015 65.036 22.3115 64.95 22.0555 64.778C21.8035 64.606 21.6055 64.36 21.4615 64.04C21.3215 63.716 21.2515 63.336 21.2515 62.9C21.2515 62.464 21.3215 62.086 21.4615 61.766C21.6055 61.442 21.8035 61.194 22.0555 61.022C22.3115 60.85 22.6015 60.764 22.9255 60.764C23.2495 60.764 23.5375 60.85 23.7895 61.022C24.0455 61.194 24.2455 61.442 24.3895 61.766C24.5335 62.086 24.6055 62.464 24.6055 62.9C24.6055 63.336 24.5335 63.716 24.3895 64.04C24.2455 64.36 24.0455 64.606 23.7895 64.778C23.5375 64.95 23.2495 65.036 22.9255 65.036ZM22.9255 64.64C23.1695 64.64 23.3835 64.572 23.5675 64.436C23.7555 64.3 23.9015 64.102 24.0055 63.842C24.1095 63.582 24.1615 63.268 24.1615 62.9C24.1615 62.532 24.1095 62.218 24.0055 61.958C23.9015 61.698 23.7555 61.5 23.5675 61.364C23.3835 61.228 23.1695 61.16 22.9255 61.16C22.6815 61.16 22.4655 61.228 22.2775 61.364C22.0935 61.5 21.9495 61.698 21.8455 61.958C21.7415 62.218 21.6895 62.532 21.6895 62.9C21.6895 63.268 21.7415 63.582 21.8455 63.842C21.9495 64.102 22.0935 64.3 22.2775 64.436C22.4655 64.572 22.6815 64.64 22.9255 64.64ZM25.4837 65.03C25.3957 65.03 25.3197 64.998 25.2557 64.934C25.1957 64.87 25.1657 64.792 25.1657 64.7C25.1657 64.608 25.1957 64.532 25.2557 64.472C25.3197 64.408 25.3957 64.376 25.4837 64.376C25.5717 64.376 25.6477 64.408 25.7117 64.472C25.7757 64.532 25.8077 64.608 25.8077 64.7C25.8077 64.792 25.7757 64.87 25.7117 64.934C25.6477 64.998 25.5717 65.03 25.4837 65.03ZM28.0407 65.036C27.7167 65.036 27.4267 64.95 27.1707 64.778C26.9187 64.606 26.7207 64.36 26.5767 64.04C26.4367 63.716 26.3667 63.336 26.3667 62.9C26.3667 62.464 26.4367 62.086 26.5767 61.766C26.7207 61.442 26.9187 61.194 27.1707 61.022C27.4267 60.85 27.7167 60.764 28.0407 60.764C28.3647 60.764 28.6527 60.85 28.9047 61.022C29.1607 61.194 29.3607 61.442 29.5047 61.766C29.6487 62.086 29.7207 62.464 29.7207 62.9C29.7207 63.336 29.6487 63.716 29.5047 64.04C29.3607 64.36 29.1607 64.606 28.9047 64.778C28.6527 64.95 28.3647 65.036 28.0407 65.036ZM28.0407 64.64C28.2847 64.64 28.4987 64.572 28.6827 64.436C28.8707 64.3 29.0167 64.102 29.1207 63.842C29.2247 63.582 29.2767 63.268 29.2767 62.9C29.2767 62.532 29.2247 62.218 29.1207 61.958C29.0167 61.698 28.8707 61.5 28.6827 61.364C28.4987 61.228 28.2847 61.16 28.0407 61.16C27.7967 61.16 27.5807 61.228 27.3927 61.364C27.2087 61.5 27.0647 61.698 26.9607 61.958C26.8567 62.218 26.8047 62.532 26.8047 62.9C26.8047 63.268 26.8567 63.582 26.9607 63.842C27.0647 64.102 27.2087 64.3 27.3927 64.436C27.5807 64.572 27.7967 64.64 28.0407 64.64ZM32.0133 65.036C31.6893 65.036 31.3993 64.95 31.1433 64.778C30.8913 64.606 30.6933 64.36 30.5493 64.04C30.4093 63.716 30.3393 63.336 30.3393 62.9C30.3393 62.464 30.4093 62.086 30.5493 61.766C30.6933 61.442 30.8913 61.194 31.1433 61.022C31.3993 60.85 31.6893 60.764 32.0133 60.764C32.3373 60.764 32.6253 60.85 32.8773 61.022C33.1333 61.194 33.3333 61.442 33.4773 61.766C33.6213 62.086 33.6933 62.464 33.6933 62.9C33.6933 63.336 33.6213 63.716 33.4773 64.04C33.3333 64.36 33.1333 64.606 32.8773 64.778C32.6253 64.95 32.3373 65.036 32.0133 65.036ZM32.0133 64.64C32.2573 64.64 32.4713 64.572 32.6553 64.436C32.8433 64.3 32.9893 64.102 33.0933 63.842C33.1973 63.582 33.2493 63.268 33.2493 62.9C33.2493 62.532 33.1973 62.218 33.0933 61.958C32.9893 61.698 32.8433 61.5 32.6553 61.364C32.4713 61.228 32.2573 61.16 32.0133 61.16C31.7693 61.16 31.5533 61.228 31.3653 61.364C31.1813 61.5 31.0373 61.698 30.9333 61.958C30.8293 62.218 30.7773 62.532 30.7773 62.9C30.7773 63.268 30.8293 63.582 30.9333 63.842C31.0373 64.102 31.1813 64.3 31.3653 64.436C31.5533 64.572 31.7693 64.64 32.0133 64.64ZM13.3435 77.89C13.3435 78.198 13.2255 78.46 12.9895 78.676C12.7535 78.888 12.4075 79.006 11.9515 79.03V79.72H11.6515V79.036C11.3595 79.02 11.0835 78.964 10.8235 78.868C10.5675 78.768 10.3655 78.642 10.2175 78.49L10.3915 78.148C10.5315 78.284 10.7135 78.398 10.9375 78.49C11.1655 78.582 11.4035 78.636 11.6515 78.652V77.074C11.3755 77.006 11.1455 76.934 10.9615 76.858C10.7775 76.778 10.6235 76.664 10.4995 76.516C10.3795 76.364 10.3195 76.164 10.3195 75.916C10.3195 75.608 10.4315 75.35 10.6555 75.142C10.8795 74.93 11.2115 74.806 11.6515 74.77V74.08H11.9515V74.764C12.1795 74.772 12.3995 74.81 12.6115 74.878C12.8275 74.942 13.0135 75.028 13.1695 75.136L13.0195 75.49C12.8555 75.386 12.6815 75.304 12.4975 75.244C12.3135 75.184 12.1315 75.15 11.9515 75.142V76.732C12.2475 76.804 12.4895 76.878 12.6775 76.954C12.8655 77.026 13.0235 77.138 13.1515 77.29C13.2795 77.442 13.3435 77.642 13.3435 77.89ZM10.7575 75.904C10.7575 76.112 10.8335 76.27 10.9855 76.378C11.1415 76.486 11.3635 76.578 11.6515 76.654V75.154C11.3555 75.178 11.1315 75.26 10.9795 75.4C10.8315 75.536 10.7575 75.704 10.7575 75.904ZM11.9515 78.652C12.2675 78.628 12.5055 78.55 12.6655 78.418C12.8255 78.286 12.9055 78.118 12.9055 77.914C12.9055 77.698 12.8235 77.536 12.6595 77.428C12.4955 77.32 12.2595 77.228 11.9515 77.152V78.652ZM15.3201 76.6C15.7601 76.624 16.0941 76.744 16.3221 76.96C16.5541 77.172 16.6701 77.45 16.6701 77.794C16.6701 78.034 16.6121 78.248 16.4961 78.436C16.3801 78.62 16.2081 78.766 15.9801 78.874C15.7521 78.982 15.4741 79.036 15.1461 79.036C14.8421 79.036 14.5541 78.988 14.2821 78.892C14.0141 78.792 13.7981 78.66 13.6341 78.496L13.8441 78.154C13.9841 78.298 14.1701 78.416 14.4021 78.508C14.6341 78.596 14.8821 78.64 15.1461 78.64C15.4901 78.64 15.7561 78.566 15.9441 78.418C16.1321 78.266 16.2261 78.058 16.2261 77.794C16.2261 77.534 16.1321 77.33 15.9441 77.182C15.7561 77.034 15.4721 76.96 15.0921 76.96H14.7921V76.642L15.9561 75.184H13.8081V74.8H16.5081V75.106L15.3201 76.6ZM18.9528 79.036C18.6288 79.036 18.3388 78.95 18.0828 78.778C17.8308 78.606 17.6328 78.36 17.4888 78.04C17.3488 77.716 17.2788 77.336 17.2788 76.9C17.2788 76.464 17.3488 76.086 17.4888 75.766C17.6328 75.442 17.8308 75.194 18.0828 75.022C18.3388 74.85 18.6288 74.764 18.9528 74.764C19.2768 74.764 19.5648 74.85 19.8168 75.022C20.0728 75.194 20.2728 75.442 20.4168 75.766C20.5608 76.086 20.6328 76.464 20.6328 76.9C20.6328 77.336 20.5608 77.716 20.4168 78.04C20.2728 78.36 20.0728 78.606 19.8168 78.778C19.5648 78.95 19.2768 79.036 18.9528 79.036ZM18.9528 78.64C19.1968 78.64 19.4108 78.572 19.5948 78.436C19.7828 78.3 19.9288 78.102 20.0328 77.842C20.1368 77.582 20.1888 77.268 20.1888 76.9C20.1888 76.532 20.1368 76.218 20.0328 75.958C19.9288 75.698 19.7828 75.5 19.5948 75.364C19.4108 75.228 19.1968 75.16 18.9528 75.16C18.7088 75.16 18.4928 75.228 18.3048 75.364C18.1208 75.5 17.9768 75.698 17.8728 75.958C17.7688 76.218 17.7168 76.532 17.7168 76.9C17.7168 77.268 17.7688 77.582 17.8728 77.842C17.9768 78.102 18.1208 78.3 18.3048 78.436C18.4928 78.572 18.7088 78.64 18.9528 78.64ZM22.9255 79.036C22.6015 79.036 22.3115 78.95 22.0555 78.778C21.8035 78.606 21.6055 78.36 21.4615 78.04C21.3215 77.716 21.2515 77.336 21.2515 76.9C21.2515 76.464 21.3215 76.086 21.4615 75.766C21.6055 75.442 21.8035 75.194 22.0555 75.022C22.3115 74.85 22.6015 74.764 22.9255 74.764C23.2495 74.764 23.5375 74.85 23.7895 75.022C24.0455 75.194 24.2455 75.442 24.3895 75.766C24.5335 76.086 24.6055 76.464 24.6055 76.9C24.6055 77.336 24.5335 77.716 24.3895 78.04C24.2455 78.36 24.0455 78.606 23.7895 78.778C23.5375 78.95 23.2495 79.036 22.9255 79.036ZM22.9255 78.64C23.1695 78.64 23.3835 78.572 23.5675 78.436C23.7555 78.3 23.9015 78.102 24.0055 77.842C24.1095 77.582 24.1615 77.268 24.1615 76.9C24.1615 76.532 24.1095 76.218 24.0055 75.958C23.9015 75.698 23.7555 75.5 23.5675 75.364C23.3835 75.228 23.1695 75.16 22.9255 75.16C22.6815 75.16 22.4655 75.228 22.2775 75.364C22.0935 75.5 21.9495 75.698 21.8455 75.958C21.7415 76.218 21.6895 76.532 21.6895 76.9C21.6895 77.268 21.7415 77.582 21.8455 77.842C21.9495 78.102 22.0935 78.3 22.2775 78.436C22.4655 78.572 22.6815 78.64 22.9255 78.64ZM25.4837 79.03C25.3957 79.03 25.3197 78.998 25.2557 78.934C25.1957 78.87 25.1657 78.792 25.1657 78.7C25.1657 78.608 25.1957 78.532 25.2557 78.472C25.3197 78.408 25.3957 78.376 25.4837 78.376C25.5717 78.376 25.6477 78.408 25.7117 78.472C25.7757 78.532 25.8077 78.608 25.8077 78.7C25.8077 78.792 25.7757 78.87 25.7117 78.934C25.6477 78.998 25.5717 79.03 25.4837 79.03ZM28.0407 79.036C27.7167 79.036 27.4267 78.95 27.1707 78.778C26.9187 78.606 26.7207 78.36 26.5767 78.04C26.4367 77.716 26.3667 77.336 26.3667 76.9C26.3667 76.464 26.4367 76.086 26.5767 75.766C26.7207 75.442 26.9187 75.194 27.1707 75.022C27.4267 74.85 27.7167 74.764 28.0407 74.764C28.3647 74.764 28.6527 74.85 28.9047 75.022C29.1607 75.194 29.3607 75.442 29.5047 75.766C29.6487 76.086 29.7207 76.464 29.7207 76.9C29.7207 77.336 29.6487 77.716 29.5047 78.04C29.3607 78.36 29.1607 78.606 28.9047 78.778C28.6527 78.95 28.3647 79.036 28.0407 79.036ZM28.0407 78.64C28.2847 78.64 28.4987 78.572 28.6827 78.436C28.8707 78.3 29.0167 78.102 29.1207 77.842C29.2247 77.582 29.2767 77.268 29.2767 76.9C29.2767 76.532 29.2247 76.218 29.1207 75.958C29.0167 75.698 28.8707 75.5 28.6827 75.364C28.4987 75.228 28.2847 75.16 28.0407 75.16C27.7967 75.16 27.5807 75.228 27.3927 75.364C27.2087 75.5 27.0647 75.698 26.9607 75.958C26.8567 76.218 26.8047 76.532 26.8047 76.9C26.8047 77.268 26.8567 77.582 26.9607 77.842C27.0647 78.102 27.2087 78.3 27.3927 78.436C27.5807 78.572 27.7967 78.64 28.0407 78.64ZM32.0133 79.036C31.6893 79.036 31.3993 78.95 31.1433 78.778C30.8913 78.606 30.6933 78.36 30.5493 78.04C30.4093 77.716 30.3393 77.336 30.3393 76.9C30.3393 76.464 30.4093 76.086 30.5493 75.766C30.6933 75.442 30.8913 75.194 31.1433 75.022C31.3993 74.85 31.6893 74.764 32.0133 74.764C32.3373 74.764 32.6253 74.85 32.8773 75.022C33.1333 75.194 33.3333 75.442 33.4773 75.766C33.6213 76.086 33.6933 76.464 33.6933 76.9C33.6933 77.336 33.6213 77.716 33.4773 78.04C33.3333 78.36 33.1333 78.606 32.8773 78.778C32.6253 78.95 32.3373 79.036 32.0133 79.036ZM32.0133 78.64C32.2573 78.64 32.4713 78.572 32.6553 78.436C32.8433 78.3 32.9893 78.102 33.0933 77.842C33.1973 77.582 33.2493 77.268 33.2493 76.9C33.2493 76.532 33.1973 76.218 33.0933 75.958C32.9893 75.698 32.8433 75.5 32.6553 75.364C32.4713 75.228 32.2573 75.16 32.0133 75.16C31.7693 75.16 31.5533 75.228 31.3653 75.364C31.1813 75.5 31.0373 75.698 30.9333 75.958C30.8293 76.218 30.7773 76.532 30.7773 76.9C30.7773 77.268 30.8293 77.582 30.9333 77.842C31.0373 78.102 31.1813 78.3 31.3653 78.436C31.5533 78.572 31.7693 78.64 32.0133 78.64ZM13.2967 91.89C13.2967 92.198 13.1787 92.46 12.9427 92.676C12.7067 92.888 12.3607 93.006 11.9047 93.03V93.72H11.6047V93.036C11.3127 93.02 11.0367 92.964 10.7767 92.868C10.5207 92.768 10.3187 92.642 10.1707 92.49L10.3447 92.148C10.4847 92.284 10.6667 92.398 10.8907 92.49C11.1187 92.582 11.3567 92.636 11.6047 92.652V91.074C11.3287 91.006 11.0987 90.934 10.9147 90.858C10.7307 90.778 10.5767 90.664 10.4527 90.516C10.3327 90.364 10.2727 90.164 10.2727 89.916C10.2727 89.608 10.3847 89.35 10.6087 89.142C10.8327 88.93 11.1647 88.806 11.6047 88.77V88.08H11.9047V88.764C12.1327 88.772 12.3527 88.81 12.5647 88.878C12.7807 88.942 12.9667 89.028 13.1227 89.136L12.9727 89.49C12.8087 89.386 12.6347 89.304 12.4507 89.244C12.2667 89.184 12.0847 89.15 11.9047 89.142V90.732C12.2007 90.804 12.4427 90.878 12.6307 90.954C12.8187 91.026 12.9767 91.138 13.1047 91.29C13.2327 91.442 13.2967 91.642 13.2967 91.89ZM10.7107 89.904C10.7107 90.112 10.7867 90.27 10.9387 90.378C11.0947 90.486 11.3167 90.578 11.6047 90.654V89.154C11.3087 89.178 11.0847 89.26 10.9327 89.4C10.7847 89.536 10.7107 89.704 10.7107 89.904ZM11.9047 92.652C12.2207 92.628 12.4587 92.55 12.6187 92.418C12.7787 92.286 12.8587 92.118 12.8587 91.914C12.8587 91.698 12.7767 91.536 12.6127 91.428C12.4487 91.32 12.2127 91.228 11.9047 91.152V92.652ZM16.7601 92.616V93H13.8141V92.694L15.5601 90.984C15.7801 90.768 15.9281 90.582 16.0041 90.426C16.0841 90.266 16.1241 90.106 16.1241 89.946C16.1241 89.698 16.0381 89.506 15.8661 89.37C15.6981 89.23 15.4561 89.16 15.1401 89.16C14.6481 89.16 14.2661 89.316 13.9941 89.628L13.6881 89.364C13.8521 89.172 14.0601 89.024 14.3121 88.92C14.5681 88.816 14.8561 88.764 15.1761 88.764C15.6041 88.764 15.9421 88.866 16.1901 89.07C16.4421 89.27 16.5681 89.546 16.5681 89.898C16.5681 90.114 16.5201 90.322 16.4241 90.522C16.3281 90.722 16.1461 90.952 15.8781 91.212L14.4501 92.616H16.7601ZM18.9528 93.036C18.6288 93.036 18.3388 92.95 18.0828 92.778C17.8308 92.606 17.6328 92.36 17.4888 92.04C17.3488 91.716 17.2788 91.336 17.2788 90.9C17.2788 90.464 17.3488 90.086 17.4888 89.766C17.6328 89.442 17.8308 89.194 18.0828 89.022C18.3388 88.85 18.6288 88.764 18.9528 88.764C19.2768 88.764 19.5648 88.85 19.8168 89.022C20.0728 89.194 20.2728 89.442 20.4168 89.766C20.5608 90.086 20.6328 90.464 20.6328 90.9C20.6328 91.336 20.5608 91.716 20.4168 92.04C20.2728 92.36 20.0728 92.606 19.8168 92.778C19.5648 92.95 19.2768 93.036 18.9528 93.036ZM18.9528 92.64C19.1968 92.64 19.4108 92.572 19.5948 92.436C19.7828 92.3 19.9288 92.102 20.0328 91.842C20.1368 91.582 20.1888 91.268 20.1888 90.9C20.1888 90.532 20.1368 90.218 20.0328 89.958C19.9288 89.698 19.7828 89.5 19.5948 89.364C19.4108 89.228 19.1968 89.16 18.9528 89.16C18.7088 89.16 18.4928 89.228 18.3048 89.364C18.1208 89.5 17.9768 89.698 17.8728 89.958C17.7688 90.218 17.7168 90.532 17.7168 90.9C17.7168 91.268 17.7688 91.582 17.8728 91.842C17.9768 92.102 18.1208 92.3 18.3048 92.436C18.4928 92.572 18.7088 92.64 18.9528 92.64ZM22.9255 93.036C22.6015 93.036 22.3115 92.95 22.0555 92.778C21.8035 92.606 21.6055 92.36 21.4615 92.04C21.3215 91.716 21.2515 91.336 21.2515 90.9C21.2515 90.464 21.3215 90.086 21.4615 89.766C21.6055 89.442 21.8035 89.194 22.0555 89.022C22.3115 88.85 22.6015 88.764 22.9255 88.764C23.2495 88.764 23.5375 88.85 23.7895 89.022C24.0455 89.194 24.2455 89.442 24.3895 89.766C24.5335 90.086 24.6055 90.464 24.6055 90.9C24.6055 91.336 24.5335 91.716 24.3895 92.04C24.2455 92.36 24.0455 92.606 23.7895 92.778C23.5375 92.95 23.2495 93.036 22.9255 93.036ZM22.9255 92.64C23.1695 92.64 23.3835 92.572 23.5675 92.436C23.7555 92.3 23.9015 92.102 24.0055 91.842C24.1095 91.582 24.1615 91.268 24.1615 90.9C24.1615 90.532 24.1095 90.218 24.0055 89.958C23.9015 89.698 23.7555 89.5 23.5675 89.364C23.3835 89.228 23.1695 89.16 22.9255 89.16C22.6815 89.16 22.4655 89.228 22.2775 89.364C22.0935 89.5 21.9495 89.698 21.8455 89.958C21.7415 90.218 21.6895 90.532 21.6895 90.9C21.6895 91.268 21.7415 91.582 21.8455 91.842C21.9495 92.102 22.0935 92.3 22.2775 92.436C22.4655 92.572 22.6815 92.64 22.9255 92.64ZM25.4837 93.03C25.3957 93.03 25.3197 92.998 25.2557 92.934C25.1957 92.87 25.1657 92.792 25.1657 92.7C25.1657 92.608 25.1957 92.532 25.2557 92.472C25.3197 92.408 25.3957 92.376 25.4837 92.376C25.5717 92.376 25.6477 92.408 25.7117 92.472C25.7757 92.532 25.8077 92.608 25.8077 92.7C25.8077 92.792 25.7757 92.87 25.7117 92.934C25.6477 92.998 25.5717 93.03 25.4837 93.03ZM28.0407 93.036C27.7167 93.036 27.4267 92.95 27.1707 92.778C26.9187 92.606 26.7207 92.36 26.5767 92.04C26.4367 91.716 26.3667 91.336 26.3667 90.9C26.3667 90.464 26.4367 90.086 26.5767 89.766C26.7207 89.442 26.9187 89.194 27.1707 89.022C27.4267 88.85 27.7167 88.764 28.0407 88.764C28.3647 88.764 28.6527 88.85 28.9047 89.022C29.1607 89.194 29.3607 89.442 29.5047 89.766C29.6487 90.086 29.7207 90.464 29.7207 90.9C29.7207 91.336 29.6487 91.716 29.5047 92.04C29.3607 92.36 29.1607 92.606 28.9047 92.778C28.6527 92.95 28.3647 93.036 28.0407 93.036ZM28.0407 92.64C28.2847 92.64 28.4987 92.572 28.6827 92.436C28.8707 92.3 29.0167 92.102 29.1207 91.842C29.2247 91.582 29.2767 91.268 29.2767 90.9C29.2767 90.532 29.2247 90.218 29.1207 89.958C29.0167 89.698 28.8707 89.5 28.6827 89.364C28.4987 89.228 28.2847 89.16 28.0407 89.16C27.7967 89.16 27.5807 89.228 27.3927 89.364C27.2087 89.5 27.0647 89.698 26.9607 89.958C26.8567 90.218 26.8047 90.532 26.8047 90.9C26.8047 91.268 26.8567 91.582 26.9607 91.842C27.0647 92.102 27.2087 92.3 27.3927 92.436C27.5807 92.572 27.7967 92.64 28.0407 92.64ZM32.0133 93.036C31.6893 93.036 31.3993 92.95 31.1433 92.778C30.8913 92.606 30.6933 92.36 30.5493 92.04C30.4093 91.716 30.3393 91.336 30.3393 90.9C30.3393 90.464 30.4093 90.086 30.5493 89.766C30.6933 89.442 30.8913 89.194 31.1433 89.022C31.3993 88.85 31.6893 88.764 32.0133 88.764C32.3373 88.764 32.6253 88.85 32.8773 89.022C33.1333 89.194 33.3333 89.442 33.4773 89.766C33.6213 90.086 33.6933 90.464 33.6933 90.9C33.6933 91.336 33.6213 91.716 33.4773 92.04C33.3333 92.36 33.1333 92.606 32.8773 92.778C32.6253 92.95 32.3373 93.036 32.0133 93.036ZM32.0133 92.64C32.2573 92.64 32.4713 92.572 32.6553 92.436C32.8433 92.3 32.9893 92.102 33.0933 91.842C33.1973 91.582 33.2493 91.268 33.2493 90.9C33.2493 90.532 33.1973 90.218 33.0933 89.958C32.9893 89.698 32.8433 89.5 32.6553 89.364C32.4713 89.228 32.2573 89.16 32.0133 89.16C31.7693 89.16 31.5533 89.228 31.3653 89.364C31.1813 89.5 31.0373 89.698 30.9333 89.958C30.8293 90.218 30.7773 90.532 30.7773 90.9C30.7773 91.268 30.8293 91.582 30.9333 91.842C31.0373 92.102 31.1813 92.3 31.3653 92.436C31.5533 92.572 31.7693 92.64 32.0133 92.64ZM14.574 105.89C14.574 106.198 14.456 106.46 14.22 106.676C13.984 106.888 13.638 107.006 13.182 107.03V107.72H12.882V107.036C12.59 107.02 12.314 106.964 12.054 106.868C11.798 106.768 11.596 106.642 11.448 106.49L11.622 106.148C11.762 106.284 11.944 106.398 12.168 106.49C12.396 106.582 12.634 106.636 12.882 106.652V105.074C12.606 105.006 12.376 104.934 12.192 104.858C12.008 104.778 11.854 104.664 11.73 104.516C11.61 104.364 11.55 104.164 11.55 103.916C11.55 103.608 11.662 103.35 11.886 103.142C12.11 102.93 12.442 102.806 12.882 102.77V102.08H13.182V102.764C13.41 102.772 13.63 102.81 13.842 102.878C14.058 102.942 14.244 103.028 14.4 103.136L14.25 103.49C14.086 103.386 13.912 103.304 13.728 103.244C13.544 103.184 13.362 103.15 13.182 103.142V104.732C13.478 104.804 13.72 104.878 13.908 104.954C14.096 105.026 14.254 105.138 14.382 105.29C14.51 105.442 14.574 105.642 14.574 105.89ZM11.988 103.904C11.988 104.112 12.064 104.27 12.216 104.378C12.372 104.486 12.594 104.578 12.882 104.654V103.154C12.586 103.178 12.362 103.26 12.21 103.4C12.062 103.536 11.988 103.704 11.988 103.904ZM13.182 106.652C13.498 106.628 13.736 106.55 13.896 106.418C14.056 106.286 14.136 106.118 14.136 105.914C14.136 105.698 14.054 105.536 13.89 105.428C13.726 105.32 13.49 105.228 13.182 105.152V106.652ZM16.2748 102.8V107H15.8428V103.184H14.8528V102.8H16.2748ZM18.9528 107.036C18.6288 107.036 18.3388 106.95 18.0828 106.778C17.8308 106.606 17.6328 106.36 17.4888 106.04C17.3488 105.716 17.2788 105.336 17.2788 104.9C17.2788 104.464 17.3488 104.086 17.4888 103.766C17.6328 103.442 17.8308 103.194 18.0828 103.022C18.3388 102.85 18.6288 102.764 18.9528 102.764C19.2768 102.764 19.5648 102.85 19.8168 103.022C20.0728 103.194 20.2728 103.442 20.4168 103.766C20.5608 104.086 20.6328 104.464 20.6328 104.9C20.6328 105.336 20.5608 105.716 20.4168 106.04C20.2728 106.36 20.0728 106.606 19.8168 106.778C19.5648 106.95 19.2768 107.036 18.9528 107.036ZM18.9528 106.64C19.1968 106.64 19.4108 106.572 19.5948 106.436C19.7828 106.3 19.9288 106.102 20.0328 105.842C20.1368 105.582 20.1888 105.268 20.1888 104.9C20.1888 104.532 20.1368 104.218 20.0328 103.958C19.9288 103.698 19.7828 103.5 19.5948 103.364C19.4108 103.228 19.1968 103.16 18.9528 103.16C18.7088 103.16 18.4928 103.228 18.3048 103.364C18.1208 103.5 17.9768 103.698 17.8728 103.958C17.7688 104.218 17.7168 104.532 17.7168 104.9C17.7168 105.268 17.7688 105.582 17.8728 105.842C17.9768 106.102 18.1208 106.3 18.3048 106.436C18.4928 106.572 18.7088 106.64 18.9528 106.64ZM22.9255 107.036C22.6015 107.036 22.3115 106.95 22.0555 106.778C21.8035 106.606 21.6055 106.36 21.4615 106.04C21.3215 105.716 21.2515 105.336 21.2515 104.9C21.2515 104.464 21.3215 104.086 21.4615 103.766C21.6055 103.442 21.8035 103.194 22.0555 103.022C22.3115 102.85 22.6015 102.764 22.9255 102.764C23.2495 102.764 23.5375 102.85 23.7895 103.022C24.0455 103.194 24.2455 103.442 24.3895 103.766C24.5335 104.086 24.6055 104.464 24.6055 104.9C24.6055 105.336 24.5335 105.716 24.3895 106.04C24.2455 106.36 24.0455 106.606 23.7895 106.778C23.5375 106.95 23.2495 107.036 22.9255 107.036ZM22.9255 106.64C23.1695 106.64 23.3835 106.572 23.5675 106.436C23.7555 106.3 23.9015 106.102 24.0055 105.842C24.1095 105.582 24.1615 105.268 24.1615 104.9C24.1615 104.532 24.1095 104.218 24.0055 103.958C23.9015 103.698 23.7555 103.5 23.5675 103.364C23.3835 103.228 23.1695 103.16 22.9255 103.16C22.6815 103.16 22.4655 103.228 22.2775 103.364C22.0935 103.5 21.9495 103.698 21.8455 103.958C21.7415 104.218 21.6895 104.532 21.6895 104.9C21.6895 105.268 21.7415 105.582 21.8455 105.842C21.9495 106.102 22.0935 106.3 22.2775 106.436C22.4655 106.572 22.6815 106.64 22.9255 106.64ZM25.4837 107.03C25.3957 107.03 25.3197 106.998 25.2557 106.934C25.1957 106.87 25.1657 106.792 25.1657 106.7C25.1657 106.608 25.1957 106.532 25.2557 106.472C25.3197 106.408 25.3957 106.376 25.4837 106.376C25.5717 106.376 25.6477 106.408 25.7117 106.472C25.7757 106.532 25.8077 106.608 25.8077 106.7C25.8077 106.792 25.7757 106.87 25.7117 106.934C25.6477 106.998 25.5717 107.03 25.4837 107.03ZM28.0407 107.036C27.7167 107.036 27.4267 106.95 27.1707 106.778C26.9187 106.606 26.7207 106.36 26.5767 106.04C26.4367 105.716 26.3667 105.336 26.3667 104.9C26.3667 104.464 26.4367 104.086 26.5767 103.766C26.7207 103.442 26.9187 103.194 27.1707 103.022C27.4267 102.85 27.7167 102.764 28.0407 102.764C28.3647 102.764 28.6527 102.85 28.9047 103.022C29.1607 103.194 29.3607 103.442 29.5047 103.766C29.6487 104.086 29.7207 104.464 29.7207 104.9C29.7207 105.336 29.6487 105.716 29.5047 106.04C29.3607 106.36 29.1607 106.606 28.9047 106.778C28.6527 106.95 28.3647 107.036 28.0407 107.036ZM28.0407 106.64C28.2847 106.64 28.4987 106.572 28.6827 106.436C28.8707 106.3 29.0167 106.102 29.1207 105.842C29.2247 105.582 29.2767 105.268 29.2767 104.9C29.2767 104.532 29.2247 104.218 29.1207 103.958C29.0167 103.698 28.8707 103.5 28.6827 103.364C28.4987 103.228 28.2847 103.16 28.0407 103.16C27.7967 103.16 27.5807 103.228 27.3927 103.364C27.2087 103.5 27.0647 103.698 26.9607 103.958C26.8567 104.218 26.8047 104.532 26.8047 104.9C26.8047 105.268 26.8567 105.582 26.9607 105.842C27.0647 106.102 27.2087 106.3 27.3927 106.436C27.5807 106.572 27.7967 106.64 28.0407 106.64ZM32.0133 107.036C31.6893 107.036 31.3993 106.95 31.1433 106.778C30.8913 106.606 30.6933 106.36 30.5493 106.04C30.4093 105.716 30.3393 105.336 30.3393 104.9C30.3393 104.464 30.4093 104.086 30.5493 103.766C30.6933 103.442 30.8913 103.194 31.1433 103.022C31.3993 102.85 31.6893 102.764 32.0133 102.764C32.3373 102.764 32.6253 102.85 32.8773 103.022C33.1333 103.194 33.3333 103.442 33.4773 103.766C33.6213 104.086 33.6933 104.464 33.6933 104.9C33.6933 105.336 33.6213 105.716 33.4773 106.04C33.3333 106.36 33.1333 106.606 32.8773 106.778C32.6253 106.95 32.3373 107.036 32.0133 107.036ZM32.0133 106.64C32.2573 106.64 32.4713 106.572 32.6553 106.436C32.8433 106.3 32.9893 106.102 33.0933 105.842C33.1973 105.582 33.2493 105.268 33.2493 104.9C33.2493 104.532 33.1973 104.218 33.0933 103.958C32.9893 103.698 32.8433 103.5 32.6553 103.364C32.4713 103.228 32.2573 103.16 32.0133 103.16C31.7693 103.16 31.5533 103.228 31.3653 103.364C31.1813 103.5 31.0373 103.698 30.9333 103.958C30.8293 104.218 30.7773 104.532 30.7773 104.9C30.7773 105.268 30.8293 105.582 30.9333 105.842C31.0373 106.102 31.1813 106.3 31.3653 106.436C31.5533 106.572 31.7693 106.64 32.0133 106.64ZM20.656 119.89C20.656 120.198 20.538 120.46 20.302 120.676C20.066 120.888 19.72 121.006 19.264 121.03V121.72H18.964V121.036C18.672 121.02 18.396 120.964 18.136 120.868C17.88 120.768 17.678 120.642 17.53 120.49L17.704 120.148C17.844 120.284 18.026 120.398 18.25 120.49C18.478 120.582 18.716 120.636 18.964 120.652V119.074C18.688 119.006 18.458 118.934 18.274 118.858C18.09 118.778 17.936 118.664 17.812 118.516C17.692 118.364 17.632 118.164 17.632 117.916C17.632 117.608 17.744 117.35 17.968 117.142C18.192 116.93 18.524 116.806 18.964 116.77V116.08H19.264V116.764C19.492 116.772 19.712 116.81 19.924 116.878C20.14 116.942 20.326 117.028 20.482 117.136L20.332 117.49C20.168 117.386 19.994 117.304 19.81 117.244C19.626 117.184 19.444 117.15 19.264 117.142V118.732C19.56 118.804 19.802 118.878 19.99 118.954C20.178 119.026 20.336 119.138 20.464 119.29C20.592 119.442 20.656 119.642 20.656 119.89ZM18.07 117.904C18.07 118.112 18.146 118.27 18.298 118.378C18.454 118.486 18.676 118.578 18.964 118.654V117.154C18.668 117.178 18.444 117.26 18.292 117.4C18.144 117.536 18.07 117.704 18.07 117.904ZM19.264 120.652C19.58 120.628 19.818 120.55 19.978 120.418C20.138 120.286 20.218 120.118 20.218 119.914C20.218 119.698 20.136 119.536 19.972 119.428C19.808 119.32 19.572 119.228 19.264 119.152V120.652ZM22.9255 121.036C22.6015 121.036 22.3115 120.95 22.0555 120.778C21.8035 120.606 21.6055 120.36 21.4615 120.04C21.3215 119.716 21.2515 119.336 21.2515 118.9C21.2515 118.464 21.3215 118.086 21.4615 117.766C21.6055 117.442 21.8035 117.194 22.0555 117.022C22.3115 116.85 22.6015 116.764 22.9255 116.764C23.2495 116.764 23.5375 116.85 23.7895 117.022C24.0455 117.194 24.2455 117.442 24.3895 117.766C24.5335 118.086 24.6055 118.464 24.6055 118.9C24.6055 119.336 24.5335 119.716 24.3895 120.04C24.2455 120.36 24.0455 120.606 23.7895 120.778C23.5375 120.95 23.2495 121.036 22.9255 121.036ZM22.9255 120.64C23.1695 120.64 23.3835 120.572 23.5675 120.436C23.7555 120.3 23.9015 120.102 24.0055 119.842C24.1095 119.582 24.1615 119.268 24.1615 118.9C24.1615 118.532 24.1095 118.218 24.0055 117.958C23.9015 117.698 23.7555 117.5 23.5675 117.364C23.3835 117.228 23.1695 117.16 22.9255 117.16C22.6815 117.16 22.4655 117.228 22.2775 117.364C22.0935 117.5 21.9495 117.698 21.8455 117.958C21.7415 118.218 21.6895 118.532 21.6895 118.9C21.6895 119.268 21.7415 119.582 21.8455 119.842C21.9495 120.102 22.0935 120.3 22.2775 120.436C22.4655 120.572 22.6815 120.64 22.9255 120.64ZM25.4837 121.03C25.3957 121.03 25.3197 120.998 25.2557 120.934C25.1957 120.87 25.1657 120.792 25.1657 120.7C25.1657 120.608 25.1957 120.532 25.2557 120.472C25.3197 120.408 25.3957 120.376 25.4837 120.376C25.5717 120.376 25.6477 120.408 25.7117 120.472C25.7757 120.532 25.8077 120.608 25.8077 120.7C25.8077 120.792 25.7757 120.87 25.7117 120.934C25.6477 120.998 25.5717 121.03 25.4837 121.03ZM28.0407 121.036C27.7167 121.036 27.4267 120.95 27.1707 120.778C26.9187 120.606 26.7207 120.36 26.5767 120.04C26.4367 119.716 26.3667 119.336 26.3667 118.9C26.3667 118.464 26.4367 118.086 26.5767 117.766C26.7207 117.442 26.9187 117.194 27.1707 117.022C27.4267 116.85 27.7167 116.764 28.0407 116.764C28.3647 116.764 28.6527 116.85 28.9047 117.022C29.1607 117.194 29.3607 117.442 29.5047 117.766C29.6487 118.086 29.7207 118.464 29.7207 118.9C29.7207 119.336 29.6487 119.716 29.5047 120.04C29.3607 120.36 29.1607 120.606 28.9047 120.778C28.6527 120.95 28.3647 121.036 28.0407 121.036ZM28.0407 120.64C28.2847 120.64 28.4987 120.572 28.6827 120.436C28.8707 120.3 29.0167 120.102 29.1207 119.842C29.2247 119.582 29.2767 119.268 29.2767 118.9C29.2767 118.532 29.2247 118.218 29.1207 117.958C29.0167 117.698 28.8707 117.5 28.6827 117.364C28.4987 117.228 28.2847 117.16 28.0407 117.16C27.7967 117.16 27.5807 117.228 27.3927 117.364C27.2087 117.5 27.0647 117.698 26.9607 117.958C26.8567 118.218 26.8047 118.532 26.8047 118.9C26.8047 119.268 26.8567 119.582 26.9607 119.842C27.0647 120.102 27.2087 120.3 27.3927 120.436C27.5807 120.572 27.7967 120.64 28.0407 120.64ZM32.0133 121.036C31.6893 121.036 31.3993 120.95 31.1433 120.778C30.8913 120.606 30.6933 120.36 30.5493 120.04C30.4093 119.716 30.3393 119.336 30.3393 118.9C30.3393 118.464 30.4093 118.086 30.5493 117.766C30.6933 117.442 30.8913 117.194 31.1433 117.022C31.3993 116.85 31.6893 116.764 32.0133 116.764C32.3373 116.764 32.6253 116.85 32.8773 117.022C33.1333 117.194 33.3333 117.442 33.4773 117.766C33.6213 118.086 33.6933 118.464 33.6933 118.9C33.6933 119.336 33.6213 119.716 33.4773 120.04C33.3333 120.36 33.1333 120.606 32.8773 120.778C32.6253 120.95 32.3373 121.036 32.0133 121.036ZM32.0133 120.64C32.2573 120.64 32.4713 120.572 32.6553 120.436C32.8433 120.3 32.9893 120.102 33.0933 119.842C33.1973 119.582 33.2493 119.268 33.2493 118.9C33.2493 118.532 33.1973 118.218 33.0933 117.958C32.9893 117.698 32.8433 117.5 32.6553 117.364C32.4713 117.228 32.2573 117.16 32.0133 117.16C31.7693 117.16 31.5533 117.228 31.3653 117.364C31.1813 117.5 31.0373 117.698 30.9333 117.958C30.8293 118.218 30.7773 118.532 30.7773 118.9C30.7773 119.268 30.8293 119.582 30.9333 119.842C31.0373 120.102 31.1813 120.3 31.3653 120.436C31.5533 120.572 31.7693 120.64 32.0133 120.64ZM9.34047 133.188H10.9125V133.56H9.34047V133.188ZM14.574 133.89C14.574 134.198 14.456 134.46 14.22 134.676C13.984 134.888 13.638 135.006 13.182 135.03V135.72H12.882V135.036C12.59 135.02 12.314 134.964 12.054 134.868C11.798 134.768 11.596 134.642 11.448 134.49L11.622 134.148C11.762 134.284 11.944 134.398 12.168 134.49C12.396 134.582 12.634 134.636 12.882 134.652V133.074C12.606 133.006 12.376 132.934 12.192 132.858C12.008 132.778 11.854 132.664 11.73 132.516C11.61 132.364 11.55 132.164 11.55 131.916C11.55 131.608 11.662 131.35 11.886 131.142C12.11 130.93 12.442 130.806 12.882 130.77V130.08H13.182V130.764C13.41 130.772 13.63 130.81 13.842 130.878C14.058 130.942 14.244 131.028 14.4 131.136L14.25 131.49C14.086 131.386 13.912 131.304 13.728 131.244C13.544 131.184 13.362 131.15 13.182 131.142V132.732C13.478 132.804 13.72 132.878 13.908 132.954C14.096 133.026 14.254 133.138 14.382 133.29C14.51 133.442 14.574 133.642 14.574 133.89ZM11.988 131.904C11.988 132.112 12.064 132.27 12.216 132.378C12.372 132.486 12.594 132.578 12.882 132.654V131.154C12.586 131.178 12.362 131.26 12.21 131.4C12.062 131.536 11.988 131.704 11.988 131.904ZM13.182 134.652C13.498 134.628 13.736 134.55 13.896 134.418C14.056 134.286 14.136 134.118 14.136 133.914C14.136 133.698 14.054 133.536 13.89 133.428C13.726 133.32 13.49 133.228 13.182 133.152V134.652ZM16.2748 130.8V135H15.8428V131.184H14.8528V130.8H16.2748ZM18.9528 135.036C18.6288 135.036 18.3388 134.95 18.0828 134.778C17.8308 134.606 17.6328 134.36 17.4888 134.04C17.3488 133.716 17.2788 133.336 17.2788 132.9C17.2788 132.464 17.3488 132.086 17.4888 131.766C17.6328 131.442 17.8308 131.194 18.0828 131.022C18.3388 130.85 18.6288 130.764 18.9528 130.764C19.2768 130.764 19.5648 130.85 19.8168 131.022C20.0728 131.194 20.2728 131.442 20.4168 131.766C20.5608 132.086 20.6328 132.464 20.6328 132.9C20.6328 133.336 20.5608 133.716 20.4168 134.04C20.2728 134.36 20.0728 134.606 19.8168 134.778C19.5648 134.95 19.2768 135.036 18.9528 135.036ZM18.9528 134.64C19.1968 134.64 19.4108 134.572 19.5948 134.436C19.7828 134.3 19.9288 134.102 20.0328 133.842C20.1368 133.582 20.1888 133.268 20.1888 132.9C20.1888 132.532 20.1368 132.218 20.0328 131.958C19.9288 131.698 19.7828 131.5 19.5948 131.364C19.4108 131.228 19.1968 131.16 18.9528 131.16C18.7088 131.16 18.4928 131.228 18.3048 131.364C18.1208 131.5 17.9768 131.698 17.8728 131.958C17.7688 132.218 17.7168 132.532 17.7168 132.9C17.7168 133.268 17.7688 133.582 17.8728 133.842C17.9768 134.102 18.1208 134.3 18.3048 134.436C18.4928 134.572 18.7088 134.64 18.9528 134.64ZM22.9255 135.036C22.6015 135.036 22.3115 134.95 22.0555 134.778C21.8035 134.606 21.6055 134.36 21.4615 134.04C21.3215 133.716 21.2515 133.336 21.2515 132.9C21.2515 132.464 21.3215 132.086 21.4615 131.766C21.6055 131.442 21.8035 131.194 22.0555 131.022C22.3115 130.85 22.6015 130.764 22.9255 130.764C23.2495 130.764 23.5375 130.85 23.7895 131.022C24.0455 131.194 24.2455 131.442 24.3895 131.766C24.5335 132.086 24.6055 132.464 24.6055 132.9C24.6055 133.336 24.5335 133.716 24.3895 134.04C24.2455 134.36 24.0455 134.606 23.7895 134.778C23.5375 134.95 23.2495 135.036 22.9255 135.036ZM22.9255 134.64C23.1695 134.64 23.3835 134.572 23.5675 134.436C23.7555 134.3 23.9015 134.102 24.0055 133.842C24.1095 133.582 24.1615 133.268 24.1615 132.9C24.1615 132.532 24.1095 132.218 24.0055 131.958C23.9015 131.698 23.7555 131.5 23.5675 131.364C23.3835 131.228 23.1695 131.16 22.9255 131.16C22.6815 131.16 22.4655 131.228 22.2775 131.364C22.0935 131.5 21.9495 131.698 21.8455 131.958C21.7415 132.218 21.6895 132.532 21.6895 132.9C21.6895 133.268 21.7415 133.582 21.8455 133.842C21.9495 134.102 22.0935 134.3 22.2775 134.436C22.4655 134.572 22.6815 134.64 22.9255 134.64ZM25.4837 135.03C25.3957 135.03 25.3197 134.998 25.2557 134.934C25.1957 134.87 25.1657 134.792 25.1657 134.7C25.1657 134.608 25.1957 134.532 25.2557 134.472C25.3197 134.408 25.3957 134.376 25.4837 134.376C25.5717 134.376 25.6477 134.408 25.7117 134.472C25.7757 134.532 25.8077 134.608 25.8077 134.7C25.8077 134.792 25.7757 134.87 25.7117 134.934C25.6477 134.998 25.5717 135.03 25.4837 135.03ZM28.0407 135.036C27.7167 135.036 27.4267 134.95 27.1707 134.778C26.9187 134.606 26.7207 134.36 26.5767 134.04C26.4367 133.716 26.3667 133.336 26.3667 132.9C26.3667 132.464 26.4367 132.086 26.5767 131.766C26.7207 131.442 26.9187 131.194 27.1707 131.022C27.4267 130.85 27.7167 130.764 28.0407 130.764C28.3647 130.764 28.6527 130.85 28.9047 131.022C29.1607 131.194 29.3607 131.442 29.5047 131.766C29.6487 132.086 29.7207 132.464 29.7207 132.9C29.7207 133.336 29.6487 133.716 29.5047 134.04C29.3607 134.36 29.1607 134.606 28.9047 134.778C28.6527 134.95 28.3647 135.036 28.0407 135.036ZM28.0407 134.64C28.2847 134.64 28.4987 134.572 28.6827 134.436C28.8707 134.3 29.0167 134.102 29.1207 133.842C29.2247 133.582 29.2767 133.268 29.2767 132.9C29.2767 132.532 29.2247 132.218 29.1207 131.958C29.0167 131.698 28.8707 131.5 28.6827 131.364C28.4987 131.228 28.2847 131.16 28.0407 131.16C27.7967 131.16 27.5807 131.228 27.3927 131.364C27.2087 131.5 27.0647 131.698 26.9607 131.958C26.8567 132.218 26.8047 132.532 26.8047 132.9C26.8047 133.268 26.8567 133.582 26.9607 133.842C27.0647 134.102 27.2087 134.3 27.3927 134.436C27.5807 134.572 27.7967 134.64 28.0407 134.64ZM32.0133 135.036C31.6893 135.036 31.3993 134.95 31.1433 134.778C30.8913 134.606 30.6933 134.36 30.5493 134.04C30.4093 133.716 30.3393 133.336 30.3393 132.9C30.3393 132.464 30.4093 132.086 30.5493 131.766C30.6933 131.442 30.8913 131.194 31.1433 131.022C31.3993 130.85 31.6893 130.764 32.0133 130.764C32.3373 130.764 32.6253 130.85 32.8773 131.022C33.1333 131.194 33.3333 131.442 33.4773 131.766C33.6213 132.086 33.6933 132.464 33.6933 132.9C33.6933 133.336 33.6213 133.716 33.4773 134.04C33.3333 134.36 33.1333 134.606 32.8773 134.778C32.6253 134.95 32.3373 135.036 32.0133 135.036ZM32.0133 134.64C32.2573 134.64 32.4713 134.572 32.6553 134.436C32.8433 134.3 32.9893 134.102 33.0933 133.842C33.1973 133.582 33.2493 133.268 33.2493 132.9C33.2493 132.532 33.1973 132.218 33.0933 131.958C32.9893 131.698 32.8433 131.5 32.6553 131.364C32.4713 131.228 32.2573 131.16 32.0133 131.16C31.7693 131.16 31.5533 131.228 31.3653 131.364C31.1813 131.5 31.0373 131.698 30.9333 131.958C30.8293 132.218 30.7773 132.532 30.7773 132.9C30.7773 133.268 30.8293 133.582 30.9333 133.842C31.0373 134.102 31.1813 134.3 31.3653 134.436C31.5533 134.572 31.7693 134.64 32.0133 134.64ZM8.06313 147.188H9.63513V147.56H8.06313V147.188ZM13.2967 147.89C13.2967 148.198 13.1787 148.46 12.9427 148.676C12.7067 148.888 12.3607 149.006 11.9047 149.03V149.72H11.6047V149.036C11.3127 149.02 11.0367 148.964 10.7767 148.868C10.5207 148.768 10.3187 148.642 10.1707 148.49L10.3447 148.148C10.4847 148.284 10.6667 148.398 10.8907 148.49C11.1187 148.582 11.3567 148.636 11.6047 148.652V147.074C11.3287 147.006 11.0987 146.934 10.9147 146.858C10.7307 146.778 10.5767 146.664 10.4527 146.516C10.3327 146.364 10.2727 146.164 10.2727 145.916C10.2727 145.608 10.3847 145.35 10.6087 145.142C10.8327 144.93 11.1647 144.806 11.6047 144.77V144.08H11.9047V144.764C12.1327 144.772 12.3527 144.81 12.5647 144.878C12.7807 144.942 12.9667 145.028 13.1227 145.136L12.9727 145.49C12.8087 145.386 12.6347 145.304 12.4507 145.244C12.2667 145.184 12.0847 145.15 11.9047 145.142V146.732C12.2007 146.804 12.4427 146.878 12.6307 146.954C12.8187 147.026 12.9767 147.138 13.1047 147.29C13.2327 147.442 13.2967 147.642 13.2967 147.89ZM10.7107 145.904C10.7107 146.112 10.7867 146.27 10.9387 146.378C11.0947 146.486 11.3167 146.578 11.6047 146.654V145.154C11.3087 145.178 11.0847 145.26 10.9327 145.4C10.7847 145.536 10.7107 145.704 10.7107 145.904ZM11.9047 148.652C12.2207 148.628 12.4587 148.55 12.6187 148.418C12.7787 148.286 12.8587 148.118 12.8587 147.914C12.8587 147.698 12.7767 147.536 12.6127 147.428C12.4487 147.32 12.2127 147.228 11.9047 147.152V148.652ZM16.7601 148.616V149H13.8141V148.694L15.5601 146.984C15.7801 146.768 15.9281 146.582 16.0041 146.426C16.0841 146.266 16.1241 146.106 16.1241 145.946C16.1241 145.698 16.0381 145.506 15.8661 145.37C15.6981 145.23 15.4561 145.16 15.1401 145.16C14.6481 145.16 14.2661 145.316 13.9941 145.628L13.6881 145.364C13.8521 145.172 14.0601 145.024 14.3121 144.92C14.5681 144.816 14.8561 144.764 15.1761 144.764C15.6041 144.764 15.9421 144.866 16.1901 145.07C16.4421 145.27 16.5681 145.546 16.5681 145.898C16.5681 146.114 16.5201 146.322 16.4241 146.522C16.3281 146.722 16.1461 146.952 15.8781 147.212L14.4501 148.616H16.7601ZM18.9528 149.036C18.6288 149.036 18.3388 148.95 18.0828 148.778C17.8308 148.606 17.6328 148.36 17.4888 148.04C17.3488 147.716 17.2788 147.336 17.2788 146.9C17.2788 146.464 17.3488 146.086 17.4888 145.766C17.6328 145.442 17.8308 145.194 18.0828 145.022C18.3388 144.85 18.6288 144.764 18.9528 144.764C19.2768 144.764 19.5648 144.85 19.8168 145.022C20.0728 145.194 20.2728 145.442 20.4168 145.766C20.5608 146.086 20.6328 146.464 20.6328 146.9C20.6328 147.336 20.5608 147.716 20.4168 148.04C20.2728 148.36 20.0728 148.606 19.8168 148.778C19.5648 148.95 19.2768 149.036 18.9528 149.036ZM18.9528 148.64C19.1968 148.64 19.4108 148.572 19.5948 148.436C19.7828 148.3 19.9288 148.102 20.0328 147.842C20.1368 147.582 20.1888 147.268 20.1888 146.9C20.1888 146.532 20.1368 146.218 20.0328 145.958C19.9288 145.698 19.7828 145.5 19.5948 145.364C19.4108 145.228 19.1968 145.16 18.9528 145.16C18.7088 145.16 18.4928 145.228 18.3048 145.364C18.1208 145.5 17.9768 145.698 17.8728 145.958C17.7688 146.218 17.7168 146.532 17.7168 146.9C17.7168 147.268 17.7688 147.582 17.8728 147.842C17.9768 148.102 18.1208 148.3 18.3048 148.436C18.4928 148.572 18.7088 148.64 18.9528 148.64ZM22.9255 149.036C22.6015 149.036 22.3115 148.95 22.0555 148.778C21.8035 148.606 21.6055 148.36 21.4615 148.04C21.3215 147.716 21.2515 147.336 21.2515 146.9C21.2515 146.464 21.3215 146.086 21.4615 145.766C21.6055 145.442 21.8035 145.194 22.0555 145.022C22.3115 144.85 22.6015 144.764 22.9255 144.764C23.2495 144.764 23.5375 144.85 23.7895 145.022C24.0455 145.194 24.2455 145.442 24.3895 145.766C24.5335 146.086 24.6055 146.464 24.6055 146.9C24.6055 147.336 24.5335 147.716 24.3895 148.04C24.2455 148.36 24.0455 148.606 23.7895 148.778C23.5375 148.95 23.2495 149.036 22.9255 149.036ZM22.9255 148.64C23.1695 148.64 23.3835 148.572 23.5675 148.436C23.7555 148.3 23.9015 148.102 24.0055 147.842C24.1095 147.582 24.1615 147.268 24.1615 146.9C24.1615 146.532 24.1095 146.218 24.0055 145.958C23.9015 145.698 23.7555 145.5 23.5675 145.364C23.3835 145.228 23.1695 145.16 22.9255 145.16C22.6815 145.16 22.4655 145.228 22.2775 145.364C22.0935 145.5 21.9495 145.698 21.8455 145.958C21.7415 146.218 21.6895 146.532 21.6895 146.9C21.6895 147.268 21.7415 147.582 21.8455 147.842C21.9495 148.102 22.0935 148.3 22.2775 148.436C22.4655 148.572 22.6815 148.64 22.9255 148.64ZM25.4837 149.03C25.3957 149.03 25.3197 148.998 25.2557 148.934C25.1957 148.87 25.1657 148.792 25.1657 148.7C25.1657 148.608 25.1957 148.532 25.2557 148.472C25.3197 148.408 25.3957 148.376 25.4837 148.376C25.5717 148.376 25.6477 148.408 25.7117 148.472C25.7757 148.532 25.8077 148.608 25.8077 148.7C25.8077 148.792 25.7757 148.87 25.7117 148.934C25.6477 148.998 25.5717 149.03 25.4837 149.03ZM28.0407 149.036C27.7167 149.036 27.4267 148.95 27.1707 148.778C26.9187 148.606 26.7207 148.36 26.5767 148.04C26.4367 147.716 26.3667 147.336 26.3667 146.9C26.3667 146.464 26.4367 146.086 26.5767 145.766C26.7207 145.442 26.9187 145.194 27.1707 145.022C27.4267 144.85 27.7167 144.764 28.0407 144.764C28.3647 144.764 28.6527 144.85 28.9047 145.022C29.1607 145.194 29.3607 145.442 29.5047 145.766C29.6487 146.086 29.7207 146.464 29.7207 146.9C29.7207 147.336 29.6487 147.716 29.5047 148.04C29.3607 148.36 29.1607 148.606 28.9047 148.778C28.6527 148.95 28.3647 149.036 28.0407 149.036ZM28.0407 148.64C28.2847 148.64 28.4987 148.572 28.6827 148.436C28.8707 148.3 29.0167 148.102 29.1207 147.842C29.2247 147.582 29.2767 147.268 29.2767 146.9C29.2767 146.532 29.2247 146.218 29.1207 145.958C29.0167 145.698 28.8707 145.5 28.6827 145.364C28.4987 145.228 28.2847 145.16 28.0407 145.16C27.7967 145.16 27.5807 145.228 27.3927 145.364C27.2087 145.5 27.0647 145.698 26.9607 145.958C26.8567 146.218 26.8047 146.532 26.8047 146.9C26.8047 147.268 26.8567 147.582 26.9607 147.842C27.0647 148.102 27.2087 148.3 27.3927 148.436C27.5807 148.572 27.7967 148.64 28.0407 148.64ZM32.0133 149.036C31.6893 149.036 31.3993 148.95 31.1433 148.778C30.8913 148.606 30.6933 148.36 30.5493 148.04C30.4093 147.716 30.3393 147.336 30.3393 146.9C30.3393 146.464 30.4093 146.086 30.5493 145.766C30.6933 145.442 30.8913 145.194 31.1433 145.022C31.3993 144.85 31.6893 144.764 32.0133 144.764C32.3373 144.764 32.6253 144.85 32.8773 145.022C33.1333 145.194 33.3333 145.442 33.4773 145.766C33.6213 146.086 33.6933 146.464 33.6933 146.9C33.6933 147.336 33.6213 147.716 33.4773 148.04C33.3333 148.36 33.1333 148.606 32.8773 148.778C32.6253 148.95 32.3373 149.036 32.0133 149.036ZM32.0133 148.64C32.2573 148.64 32.4713 148.572 32.6553 148.436C32.8433 148.3 32.9893 148.102 33.0933 147.842C33.1973 147.582 33.2493 147.268 33.2493 146.9C33.2493 146.532 33.1973 146.218 33.0933 145.958C32.9893 145.698 32.8433 145.5 32.6553 145.364C32.4713 145.228 32.2573 145.16 32.0133 145.16C31.7693 145.16 31.5533 145.228 31.3653 145.364C31.1813 145.5 31.0373 145.698 30.9333 145.958C30.8293 146.218 30.7773 146.532 30.7773 146.9C30.7773 147.268 30.8293 147.582 30.9333 147.842C31.0373 148.102 31.1813 148.3 31.3653 148.436C31.5533 148.572 31.7693 148.64 32.0133 148.64ZM8.11 161.188H9.682V161.56H8.11V161.188ZM13.3435 161.89C13.3435 162.198 13.2255 162.46 12.9895 162.676C12.7535 162.888 12.4075 163.006 11.9515 163.03V163.72H11.6515V163.036C11.3595 163.02 11.0835 162.964 10.8235 162.868C10.5675 162.768 10.3655 162.642 10.2175 162.49L10.3915 162.148C10.5315 162.284 10.7135 162.398 10.9375 162.49C11.1655 162.582 11.4035 162.636 11.6515 162.652V161.074C11.3755 161.006 11.1455 160.934 10.9615 160.858C10.7775 160.778 10.6235 160.664 10.4995 160.516C10.3795 160.364 10.3195 160.164 10.3195 159.916C10.3195 159.608 10.4315 159.35 10.6555 159.142C10.8795 158.93 11.2115 158.806 11.6515 158.77V158.08H11.9515V158.764C12.1795 158.772 12.3995 158.81 12.6115 158.878C12.8275 158.942 13.0135 159.028 13.1695 159.136L13.0195 159.49C12.8555 159.386 12.6815 159.304 12.4975 159.244C12.3135 159.184 12.1315 159.15 11.9515 159.142V160.732C12.2475 160.804 12.4895 160.878 12.6775 160.954C12.8655 161.026 13.0235 161.138 13.1515 161.29C13.2795 161.442 13.3435 161.642 13.3435 161.89ZM10.7575 159.904C10.7575 160.112 10.8335 160.27 10.9855 160.378C11.1415 160.486 11.3635 160.578 11.6515 160.654V159.154C11.3555 159.178 11.1315 159.26 10.9795 159.4C10.8315 159.536 10.7575 159.704 10.7575 159.904ZM11.9515 162.652C12.2675 162.628 12.5055 162.55 12.6655 162.418C12.8255 162.286 12.9055 162.118 12.9055 161.914C12.9055 161.698 12.8235 161.536 12.6595 161.428C12.4955 161.32 12.2595 161.228 11.9515 161.152V162.652ZM15.3201 160.6C15.7601 160.624 16.0941 160.744 16.3221 160.96C16.5541 161.172 16.6701 161.45 16.6701 161.794C16.6701 162.034 16.6121 162.248 16.4961 162.436C16.3801 162.62 16.2081 162.766 15.9801 162.874C15.7521 162.982 15.4741 163.036 15.1461 163.036C14.8421 163.036 14.5541 162.988 14.2821 162.892C14.0141 162.792 13.7981 162.66 13.6341 162.496L13.8441 162.154C13.9841 162.298 14.1701 162.416 14.4021 162.508C14.6341 162.596 14.8821 162.64 15.1461 162.64C15.4901 162.64 15.7561 162.566 15.9441 162.418C16.1321 162.266 16.2261 162.058 16.2261 161.794C16.2261 161.534 16.1321 161.33 15.9441 161.182C15.7561 161.034 15.4721 160.96 15.0921 160.96H14.7921V160.642L15.9561 159.184H13.8081V158.8H16.5081V159.106L15.3201 160.6ZM18.9528 163.036C18.6288 163.036 18.3388 162.95 18.0828 162.778C17.8308 162.606 17.6328 162.36 17.4888 162.04C17.3488 161.716 17.2788 161.336 17.2788 160.9C17.2788 160.464 17.3488 160.086 17.4888 159.766C17.6328 159.442 17.8308 159.194 18.0828 159.022C18.3388 158.85 18.6288 158.764 18.9528 158.764C19.2768 158.764 19.5648 158.85 19.8168 159.022C20.0728 159.194 20.2728 159.442 20.4168 159.766C20.5608 160.086 20.6328 160.464 20.6328 160.9C20.6328 161.336 20.5608 161.716 20.4168 162.04C20.2728 162.36 20.0728 162.606 19.8168 162.778C19.5648 162.95 19.2768 163.036 18.9528 163.036ZM18.9528 162.64C19.1968 162.64 19.4108 162.572 19.5948 162.436C19.7828 162.3 19.9288 162.102 20.0328 161.842C20.1368 161.582 20.1888 161.268 20.1888 160.9C20.1888 160.532 20.1368 160.218 20.0328 159.958C19.9288 159.698 19.7828 159.5 19.5948 159.364C19.4108 159.228 19.1968 159.16 18.9528 159.16C18.7088 159.16 18.4928 159.228 18.3048 159.364C18.1208 159.5 17.9768 159.698 17.8728 159.958C17.7688 160.218 17.7168 160.532 17.7168 160.9C17.7168 161.268 17.7688 161.582 17.8728 161.842C17.9768 162.102 18.1208 162.3 18.3048 162.436C18.4928 162.572 18.7088 162.64 18.9528 162.64ZM22.9255 163.036C22.6015 163.036 22.3115 162.95 22.0555 162.778C21.8035 162.606 21.6055 162.36 21.4615 162.04C21.3215 161.716 21.2515 161.336 21.2515 160.9C21.2515 160.464 21.3215 160.086 21.4615 159.766C21.6055 159.442 21.8035 159.194 22.0555 159.022C22.3115 158.85 22.6015 158.764 22.9255 158.764C23.2495 158.764 23.5375 158.85 23.7895 159.022C24.0455 159.194 24.2455 159.442 24.3895 159.766C24.5335 160.086 24.6055 160.464 24.6055 160.9C24.6055 161.336 24.5335 161.716 24.3895 162.04C24.2455 162.36 24.0455 162.606 23.7895 162.778C23.5375 162.95 23.2495 163.036 22.9255 163.036ZM22.9255 162.64C23.1695 162.64 23.3835 162.572 23.5675 162.436C23.7555 162.3 23.9015 162.102 24.0055 161.842C24.1095 161.582 24.1615 161.268 24.1615 160.9C24.1615 160.532 24.1095 160.218 24.0055 159.958C23.9015 159.698 23.7555 159.5 23.5675 159.364C23.3835 159.228 23.1695 159.16 22.9255 159.16C22.6815 159.16 22.4655 159.228 22.2775 159.364C22.0935 159.5 21.9495 159.698 21.8455 159.958C21.7415 160.218 21.6895 160.532 21.6895 160.9C21.6895 161.268 21.7415 161.582 21.8455 161.842C21.9495 162.102 22.0935 162.3 22.2775 162.436C22.4655 162.572 22.6815 162.64 22.9255 162.64ZM25.4837 163.03C25.3957 163.03 25.3197 162.998 25.2557 162.934C25.1957 162.87 25.1657 162.792 25.1657 162.7C25.1657 162.608 25.1957 162.532 25.2557 162.472C25.3197 162.408 25.3957 162.376 25.4837 162.376C25.5717 162.376 25.6477 162.408 25.7117 162.472C25.7757 162.532 25.8077 162.608 25.8077 162.7C25.8077 162.792 25.7757 162.87 25.7117 162.934C25.6477 162.998 25.5717 163.03 25.4837 163.03ZM28.0407 163.036C27.7167 163.036 27.4267 162.95 27.1707 162.778C26.9187 162.606 26.7207 162.36 26.5767 162.04C26.4367 161.716 26.3667 161.336 26.3667 160.9C26.3667 160.464 26.4367 160.086 26.5767 159.766C26.7207 159.442 26.9187 159.194 27.1707 159.022C27.4267 158.85 27.7167 158.764 28.0407 158.764C28.3647 158.764 28.6527 158.85 28.9047 159.022C29.1607 159.194 29.3607 159.442 29.5047 159.766C29.6487 160.086 29.7207 160.464 29.7207 160.9C29.7207 161.336 29.6487 161.716 29.5047 162.04C29.3607 162.36 29.1607 162.606 28.9047 162.778C28.6527 162.95 28.3647 163.036 28.0407 163.036ZM28.0407 162.64C28.2847 162.64 28.4987 162.572 28.6827 162.436C28.8707 162.3 29.0167 162.102 29.1207 161.842C29.2247 161.582 29.2767 161.268 29.2767 160.9C29.2767 160.532 29.2247 160.218 29.1207 159.958C29.0167 159.698 28.8707 159.5 28.6827 159.364C28.4987 159.228 28.2847 159.16 28.0407 159.16C27.7967 159.16 27.5807 159.228 27.3927 159.364C27.2087 159.5 27.0647 159.698 26.9607 159.958C26.8567 160.218 26.8047 160.532 26.8047 160.9C26.8047 161.268 26.8567 161.582 26.9607 161.842C27.0647 162.102 27.2087 162.3 27.3927 162.436C27.5807 162.572 27.7967 162.64 28.0407 162.64ZM32.0133 163.036C31.6893 163.036 31.3993 162.95 31.1433 162.778C30.8913 162.606 30.6933 162.36 30.5493 162.04C30.4093 161.716 30.3393 161.336 30.3393 160.9C30.3393 160.464 30.4093 160.086 30.5493 159.766C30.6933 159.442 30.8913 159.194 31.1433 159.022C31.3993 158.85 31.6893 158.764 32.0133 158.764C32.3373 158.764 32.6253 158.85 32.8773 159.022C33.1333 159.194 33.3333 159.442 33.4773 159.766C33.6213 160.086 33.6933 160.464 33.6933 160.9C33.6933 161.336 33.6213 161.716 33.4773 162.04C33.3333 162.36 33.1333 162.606 32.8773 162.778C32.6253 162.95 32.3373 163.036 32.0133 163.036ZM32.0133 162.64C32.2573 162.64 32.4713 162.572 32.6553 162.436C32.8433 162.3 32.9893 162.102 33.0933 161.842C33.1973 161.582 33.2493 161.268 33.2493 160.9C33.2493 160.532 33.1973 160.218 33.0933 159.958C32.9893 159.698 32.8433 159.5 32.6553 159.364C32.4713 159.228 32.2573 159.16 32.0133 159.16C31.7693 159.16 31.5533 159.228 31.3653 159.364C31.1813 159.5 31.0373 159.698 30.9333 159.958C30.8293 160.218 30.7773 160.532 30.7773 160.9C30.7773 161.268 30.8293 161.582 30.9333 161.842C31.0373 162.102 31.1813 162.3 31.3653 162.436C31.5533 162.572 31.7693 162.64 32.0133 162.64ZM7.42445 175.188H8.99645V175.56H7.42445V175.188ZM12.658 175.89C12.658 176.198 12.54 176.46 12.304 176.676C12.068 176.888 11.722 177.006 11.266 177.03V177.72H10.966V177.036C10.674 177.02 10.398 176.964 10.138 176.868C9.882 176.768 9.68 176.642 9.532 176.49L9.706 176.148C9.846 176.284 10.028 176.398 10.252 176.49C10.48 176.582 10.718 176.636 10.966 176.652V175.074C10.69 175.006 10.46 174.934 10.276 174.858C10.092 174.778 9.938 174.664 9.814 174.516C9.694 174.364 9.634 174.164 9.634 173.916C9.634 173.608 9.746 173.35 9.97 173.142C10.194 172.93 10.526 172.806 10.966 172.77V172.08H11.266V172.764C11.494 172.772 11.714 172.81 11.926 172.878C12.142 172.942 12.328 173.028 12.484 173.136L12.334 173.49C12.17 173.386 11.996 173.304 11.812 173.244C11.628 173.184 11.446 173.15 11.266 173.142V174.732C11.562 174.804 11.804 174.878 11.992 174.954C12.18 175.026 12.338 175.138 12.466 175.29C12.594 175.442 12.658 175.642 12.658 175.89ZM10.072 173.904C10.072 174.112 10.148 174.27 10.3 174.378C10.456 174.486 10.678 174.578 10.966 174.654V173.154C10.67 173.178 10.446 173.26 10.294 173.4C10.146 173.536 10.072 173.704 10.072 173.904ZM11.266 176.652C11.582 176.628 11.82 176.55 11.98 176.418C12.14 176.286 12.22 176.118 12.22 175.914C12.22 175.698 12.138 175.536 11.974 175.428C11.81 175.32 11.574 175.228 11.266 175.152V176.652ZM16.882 175.896H16.042V177H15.61V175.896H13.24V175.584L15.466 172.8H15.946L13.798 175.512H15.622V174.54H16.042V175.512H16.882V175.896ZM18.9528 177.036C18.6288 177.036 18.3388 176.95 18.0828 176.778C17.8308 176.606 17.6328 176.36 17.4888 176.04C17.3488 175.716 17.2788 175.336 17.2788 174.9C17.2788 174.464 17.3488 174.086 17.4888 173.766C17.6328 173.442 17.8308 173.194 18.0828 173.022C18.3388 172.85 18.6288 172.764 18.9528 172.764C19.2768 172.764 19.5648 172.85 19.8168 173.022C20.0728 173.194 20.2728 173.442 20.4168 173.766C20.5608 174.086 20.6328 174.464 20.6328 174.9C20.6328 175.336 20.5608 175.716 20.4168 176.04C20.2728 176.36 20.0728 176.606 19.8168 176.778C19.5648 176.95 19.2768 177.036 18.9528 177.036ZM18.9528 176.64C19.1968 176.64 19.4108 176.572 19.5948 176.436C19.7828 176.3 19.9288 176.102 20.0328 175.842C20.1368 175.582 20.1888 175.268 20.1888 174.9C20.1888 174.532 20.1368 174.218 20.0328 173.958C19.9288 173.698 19.7828 173.5 19.5948 173.364C19.4108 173.228 19.1968 173.16 18.9528 173.16C18.7088 173.16 18.4928 173.228 18.3048 173.364C18.1208 173.5 17.9768 173.698 17.8728 173.958C17.7688 174.218 17.7168 174.532 17.7168 174.9C17.7168 175.268 17.7688 175.582 17.8728 175.842C17.9768 176.102 18.1208 176.3 18.3048 176.436C18.4928 176.572 18.7088 176.64 18.9528 176.64ZM22.9255 177.036C22.6015 177.036 22.3115 176.95 22.0555 176.778C21.8035 176.606 21.6055 176.36 21.4615 176.04C21.3215 175.716 21.2515 175.336 21.2515 174.9C21.2515 174.464 21.3215 174.086 21.4615 173.766C21.6055 173.442 21.8035 173.194 22.0555 173.022C22.3115 172.85 22.6015 172.764 22.9255 172.764C23.2495 172.764 23.5375 172.85 23.7895 173.022C24.0455 173.194 24.2455 173.442 24.3895 173.766C24.5335 174.086 24.6055 174.464 24.6055 174.9C24.6055 175.336 24.5335 175.716 24.3895 176.04C24.2455 176.36 24.0455 176.606 23.7895 176.778C23.5375 176.95 23.2495 177.036 22.9255 177.036ZM22.9255 176.64C23.1695 176.64 23.3835 176.572 23.5675 176.436C23.7555 176.3 23.9015 176.102 24.0055 175.842C24.1095 175.582 24.1615 175.268 24.1615 174.9C24.1615 174.532 24.1095 174.218 24.0055 173.958C23.9015 173.698 23.7555 173.5 23.5675 173.364C23.3835 173.228 23.1695 173.16 22.9255 173.16C22.6815 173.16 22.4655 173.228 22.2775 173.364C22.0935 173.5 21.9495 173.698 21.8455 173.958C21.7415 174.218 21.6895 174.532 21.6895 174.9C21.6895 175.268 21.7415 175.582 21.8455 175.842C21.9495 176.102 22.0935 176.3 22.2775 176.436C22.4655 176.572 22.6815 176.64 22.9255 176.64ZM25.4837 177.03C25.3957 177.03 25.3197 176.998 25.2557 176.934C25.1957 176.87 25.1657 176.792 25.1657 176.7C25.1657 176.608 25.1957 176.532 25.2557 176.472C25.3197 176.408 25.3957 176.376 25.4837 176.376C25.5717 176.376 25.6477 176.408 25.7117 176.472C25.7757 176.532 25.8077 176.608 25.8077 176.7C25.8077 176.792 25.7757 176.87 25.7117 176.934C25.6477 176.998 25.5717 177.03 25.4837 177.03ZM28.0407 177.036C27.7167 177.036 27.4267 176.95 27.1707 176.778C26.9187 176.606 26.7207 176.36 26.5767 176.04C26.4367 175.716 26.3667 175.336 26.3667 174.9C26.3667 174.464 26.4367 174.086 26.5767 173.766C26.7207 173.442 26.9187 173.194 27.1707 173.022C27.4267 172.85 27.7167 172.764 28.0407 172.764C28.3647 172.764 28.6527 172.85 28.9047 173.022C29.1607 173.194 29.3607 173.442 29.5047 173.766C29.6487 174.086 29.7207 174.464 29.7207 174.9C29.7207 175.336 29.6487 175.716 29.5047 176.04C29.3607 176.36 29.1607 176.606 28.9047 176.778C28.6527 176.95 28.3647 177.036 28.0407 177.036ZM28.0407 176.64C28.2847 176.64 28.4987 176.572 28.6827 176.436C28.8707 176.3 29.0167 176.102 29.1207 175.842C29.2247 175.582 29.2767 175.268 29.2767 174.9C29.2767 174.532 29.2247 174.218 29.1207 173.958C29.0167 173.698 28.8707 173.5 28.6827 173.364C28.4987 173.228 28.2847 173.16 28.0407 173.16C27.7967 173.16 27.5807 173.228 27.3927 173.364C27.2087 173.5 27.0647 173.698 26.9607 173.958C26.8567 174.218 26.8047 174.532 26.8047 174.9C26.8047 175.268 26.8567 175.582 26.9607 175.842C27.0647 176.102 27.2087 176.3 27.3927 176.436C27.5807 176.572 27.7967 176.64 28.0407 176.64ZM32.0133 177.036C31.6893 177.036 31.3993 176.95 31.1433 176.778C30.8913 176.606 30.6933 176.36 30.5493 176.04C30.4093 175.716 30.3393 175.336 30.3393 174.9C30.3393 174.464 30.4093 174.086 30.5493 173.766C30.6933 173.442 30.8913 173.194 31.1433 173.022C31.3993 172.85 31.6893 172.764 32.0133 172.764C32.3373 172.764 32.6253 172.85 32.8773 173.022C33.1333 173.194 33.3333 173.442 33.4773 173.766C33.6213 174.086 33.6933 174.464 33.6933 174.9C33.6933 175.336 33.6213 175.716 33.4773 176.04C33.3333 176.36 33.1333 176.606 32.8773 176.778C32.6253 176.95 32.3373 177.036 32.0133 177.036ZM32.0133 176.64C32.2573 176.64 32.4713 176.572 32.6553 176.436C32.8433 176.3 32.9893 176.102 33.0933 175.842C33.1973 175.582 33.2493 175.268 33.2493 174.9C33.2493 174.532 33.1973 174.218 33.0933 173.958C32.9893 173.698 32.8433 173.5 32.6553 173.364C32.4713 173.228 32.2573 173.16 32.0133 173.16C31.7693 173.16 31.5533 173.228 31.3653 173.364C31.1813 173.5 31.0373 173.698 30.9333 173.958C30.8293 174.218 30.7773 174.532 30.7773 174.9C30.7773 175.268 30.8293 175.582 30.9333 175.842C31.0373 176.102 31.1813 176.3 31.3653 176.436C31.5533 176.572 31.7693 176.64 32.0133 176.64Z" fill="black"/>
<path opacity="0.2" d="M42 63H293" stroke="#564CE9" stroke-width="0.5" stroke-linecap="square"/>
<path opacity="0.2" d="M42 48.6666H293" stroke="#564CE9" stroke-width="0.5" stroke-linecap="square"/>
<path opacity="0.2" d="M42 34.3334H293" stroke="#564CE9" stroke-width="0.5" stroke-linecap="square"/>
<path opacity="0.2" d="M42 20H293" stroke="#564CE9" stroke-width="0.5" stroke-linecap="square"/>
<path opacity="0.2" d="M42 118H293" stroke="#564CE9" stroke-width="0.5" stroke-linecap="square"/>
<path opacity="0.2" d="M42 103.667H293" stroke="#564CE9" stroke-width="0.5" stroke-linecap="square"/>
<path opacity="0.2" d="M42 89.3334H293" stroke="#564CE9" stroke-width="0.5" stroke-linecap="square"/>
<path opacity="0.2" d="M42 75H293" stroke="#564CE9" stroke-width="0.5" stroke-linecap="square"/>
<path opacity="0.2" d="M42 175H293" stroke="#564CE9" stroke-width="0.5" stroke-linecap="square"/>
<path opacity="0.2" d="M42 160.667H293" stroke="#564CE9" stroke-width="0.5" stroke-linecap="square"/>
<path opacity="0.2" d="M42 146.333H293" stroke="#564CE9" stroke-width="0.5" stroke-linecap="square"/>
<path opacity="0.2" d="M42 132H293" stroke="#564CE9" stroke-width="0.5" stroke-linecap="square"/>
<mask id="mask0" mask-type="alpha" maskUnits="userSpaceOnUse" x="42" y="28" width="292" height="149">
<path fill-rule="evenodd" clip-rule="evenodd" d="M42 118C42 118 73.3569 164 102 164C130.643 164 162 108 162 108C162 108 201.284 28.9518 293 28.9518C384.716 28.9518 291 177 291 177H42L42 118Z" fill="white"/>
</mask>
<g mask="url(#mask0)">
<rect x="42" y="18" width="251" height="159" fill="url(#paint0_linear)"/>
</g>
<path d="M42 118C42 118 73.5018 164 102 164C130.498 164 162 108 162 108C162 108 204.363 27 293 29" stroke="#564CE9"/>
<g filter="url(#filter0_f)">
<path fill-rule="evenodd" clip-rule="evenodd" d="M293 31C294.105 31 295 30.1046 295 29C295 27.8954 294.105 27 293 27C291.895 27 291 27.8954 291 29C291 30.1046 291.895 31 293 31Z" fill="#564CE9"/>
</g>
<path fill-rule="evenodd" clip-rule="evenodd" d="M293 31C294.105 31 295 30.1046 295 29C295 27.8954 294.105 27 293 27C291.895 27 291 27.8954 291 29C291 30.1046 291.895 31 293 31Z" fill="#564CE9"/>
<g filter="url(#filter1_f)">
<path fill-rule="evenodd" clip-rule="evenodd" d="M222 46C223.105 46 224 45.1046 224 44C224 42.8954 223.105 42 222 42C220.895 42 220 42.8954 220 44C220 45.1046 220.895 46 222 46Z" fill="#564CE9"/>
</g>
<path fill-rule="evenodd" clip-rule="evenodd" d="M222 46C223.105 46 224 45.1046 224 44C224 42.8954 223.105 42 222 42C220.895 42 220 42.8954 220 44C220 45.1046 220.895 46 222 46Z" fill="#564CE9"/>
<g filter="url(#filter2_f)">
<path fill-rule="evenodd" clip-rule="evenodd" d="M162 110C163.105 110 164 109.105 164 108C164 106.895 163.105 106 162 106C160.895 106 160 106.895 160 108C160 109.105 160.895 110 162 110Z" fill="#564CE9"/>
</g>
<path fill-rule="evenodd" clip-rule="evenodd" d="M162 110C163.105 110 164 109.105 164 108C164 106.895 163.105 106 162 106C160.895 106 160 106.895 160 108C160 109.105 160.895 110 162 110Z" fill="#564CE9"/>
<g filter="url(#filter3_f)">
<path fill-rule="evenodd" clip-rule="evenodd" d="M102 166C103.105 166 104 165.105 104 164C104 162.895 103.105 162 102 162C100.895 162 100 162.895 100 164C100 165.105 100.895 166 102 166Z" fill="#564CE9"/>
</g>
<path fill-rule="evenodd" clip-rule="evenodd" d="M102 166C103.105 166 104 165.105 104 164C104 162.895 103.105 162 102 162C100.895 162 100 162.895 100 164C100 165.105 100.895 166 102 166Z" fill="#564CE9"/>
<g filter="url(#filter4_f)">
<path fill-rule="evenodd" clip-rule="evenodd" d="M42 120C43.1046 120 44 119.105 44 118C44 116.895 43.1046 116 42 116C40.8954 116 40 116.895 40 118C40 119.105 40.8954 120 42 120Z" fill="#564CE9"/>
</g>
<path fill-rule="evenodd" clip-rule="evenodd" d="M42 120C43.1046 120 44 119.105 44 118C44 116.895 43.1046 116 42 116C40.8954 116 40 116.895 40 118C40 119.105 40.8954 120 42 120Z" fill="#564CE9"/>
<path d="M90.6906 9.036C90.2746 9.036 89.8986 8.944 89.5626 8.76C89.2306 8.576 88.9686 8.322 88.7766 7.998C88.5886 7.67 88.4946 7.304 88.4946 6.9C88.4946 6.496 88.5886 6.132 88.7766 5.808C88.9686 5.48 89.2326 5.224 89.5686 5.04C89.9046 4.856 90.2806 4.764 90.6966 4.764C91.0086 4.764 91.2966 4.816 91.5606 4.92C91.8246 5.024 92.0486 5.176 92.2326 5.376L91.9506 5.658C91.6226 5.326 91.2086 5.16 90.7086 5.16C90.3766 5.16 90.0746 5.236 89.8026 5.388C89.5306 5.54 89.3166 5.748 89.1606 6.012C89.0086 6.276 88.9326 6.572 88.9326 6.9C88.9326 7.228 89.0086 7.524 89.1606 7.788C89.3166 8.052 89.5306 8.26 89.8026 8.412C90.0746 8.564 90.3766 8.64 90.7086 8.64C91.2126 8.64 91.6266 8.472 91.9506 8.136L92.2326 8.418C92.0486 8.618 91.8226 8.772 91.5546 8.88C91.2906 8.984 91.0026 9.036 90.6906 9.036ZM94.8594 9.036C94.3154 9.036 93.8914 8.88 93.5874 8.568C93.2834 8.256 93.1314 7.802 93.1314 7.206V4.8H93.5754V7.188C93.5754 7.676 93.6854 8.04 93.9054 8.28C94.1254 8.52 94.4434 8.64 94.8594 8.64C95.2794 8.64 95.5994 8.52 95.8194 8.28C96.0394 8.04 96.1494 7.676 96.1494 7.188V4.8H96.5814V7.206C96.5814 7.802 96.4294 8.256 96.1254 8.568C95.8254 8.88 95.4034 9.036 94.8594 9.036ZM102.281 4.8V9H101.855V5.64L100.205 8.466H99.9954L98.3454 5.658V9H97.9194V4.8H98.2854L100.109 7.914L101.915 4.8H102.281ZM105.342 9.036C104.798 9.036 104.374 8.88 104.07 8.568C103.766 8.256 103.614 7.802 103.614 7.206V4.8H104.058V7.188C104.058 7.676 104.168 8.04 104.388 8.28C104.608 8.52 104.926 8.64 105.342 8.64C105.762 8.64 106.082 8.52 106.302 8.28C106.522 8.04 106.632 7.676 106.632 7.188V4.8H107.064V7.206C107.064 7.802 106.912 8.256 106.608 8.568C106.308 8.88 105.886 9.036 105.342 9.036ZM108.402 4.8H108.846V8.616H111.198V9H108.402V4.8ZM114.581 7.878H112.241L111.737 9H111.275L113.195 4.8H113.633L115.553 9H115.085L114.581 7.878ZM114.419 7.518L113.411 5.262L112.403 7.518H114.419ZM116.853 5.184H115.377V4.8H118.773V5.184H117.297V9H116.853V5.184ZM119.482 4.8H119.926V9H119.482V4.8ZM124.738 4.8L122.878 9H122.44L120.58 4.8H121.06L122.668 8.448L124.288 4.8H124.738ZM128.317 8.616V9H125.347V4.8H128.227V5.184H125.791V6.678H127.963V7.056H125.791V8.616H128.317ZM132.503 4.8C133.039 4.8 133.459 4.928 133.763 5.184C134.067 5.44 134.219 5.792 134.219 6.24C134.219 6.688 134.067 7.04 133.763 7.296C133.459 7.548 133.039 7.674 132.503 7.674H131.375V9H130.931V4.8H132.503ZM132.491 7.284C132.907 7.284 133.225 7.194 133.445 7.014C133.665 6.83 133.775 6.572 133.775 6.24C133.775 5.9 133.665 5.64 133.445 5.46C133.225 5.276 132.907 5.184 132.491 5.184H131.375V7.284H132.491ZM138.047 9L137.087 7.65C136.979 7.662 136.867 7.668 136.751 7.668H135.623V9H135.179V4.8H136.751C137.287 4.8 137.707 4.928 138.011 5.184C138.315 5.44 138.467 5.792 138.467 6.24C138.467 6.568 138.383 6.846 138.215 7.074C138.051 7.298 137.815 7.46 137.507 7.56L138.533 9H138.047ZM136.739 7.29C137.155 7.29 137.473 7.198 137.693 7.014C137.913 6.83 138.023 6.572 138.023 6.24C138.023 5.9 137.913 5.64 137.693 5.46C137.473 5.276 137.155 5.184 136.739 5.184H135.623V7.29H136.739ZM141.351 9.036C140.935 9.036 140.557 8.944 140.217 8.76C139.881 8.572 139.617 8.316 139.425 7.992C139.237 7.668 139.143 7.304 139.143 6.9C139.143 6.496 139.237 6.132 139.425 5.808C139.617 5.484 139.881 5.23 140.217 5.046C140.557 4.858 140.935 4.764 141.351 4.764C141.767 4.764 142.141 4.856 142.473 5.04C142.809 5.224 143.073 5.48 143.265 5.808C143.457 6.132 143.553 6.496 143.553 6.9C143.553 7.304 143.457 7.67 143.265 7.998C143.073 8.322 142.809 8.576 142.473 8.76C142.141 8.944 141.767 9.036 141.351 9.036ZM141.351 8.64C141.683 8.64 141.983 8.566 142.251 8.418C142.519 8.266 142.729 8.058 142.881 7.794C143.033 7.526 143.109 7.228 143.109 6.9C143.109 6.572 143.033 6.276 142.881 6.012C142.729 5.744 142.519 5.536 142.251 5.388C141.983 5.236 141.683 5.16 141.351 5.16C141.019 5.16 140.717 5.236 140.445 5.388C140.177 5.536 139.965 5.744 139.809 6.012C139.657 6.276 139.581 6.572 139.581 6.9C139.581 7.228 139.657 7.526 139.809 7.794C139.965 8.058 140.177 8.266 140.445 8.418C140.717 8.566 141.019 8.64 141.351 8.64ZM144.992 5.184V6.834H147.164V7.218H144.992V9H144.548V4.8H147.428V5.184H144.992ZM148.345 4.8H148.789V9H148.345V4.8ZM150.972 5.184H149.496V4.8H152.892V5.184H151.416V9H150.972V5.184ZM157.817 6.834C158.093 6.894 158.305 7.014 158.453 7.194C158.605 7.37 158.681 7.598 158.681 7.878C158.681 8.238 158.547 8.516 158.279 8.712C158.015 8.904 157.623 9 157.103 9H155.171V4.8H156.983C157.451 4.8 157.813 4.894 158.069 5.082C158.329 5.27 158.459 5.536 158.459 5.88C158.459 6.112 158.401 6.31 158.285 6.474C158.173 6.634 158.017 6.754 157.817 6.834ZM155.615 5.166V6.69H156.953C157.293 6.69 157.555 6.626 157.739 6.498C157.923 6.366 158.015 6.176 158.015 5.928C158.015 5.68 157.923 5.492 157.739 5.364C157.555 5.232 157.293 5.166 156.953 5.166H155.615ZM157.097 8.634C157.473 8.634 157.757 8.57 157.949 8.442C158.141 8.314 158.237 8.114 158.237 7.842C158.237 7.318 157.857 7.056 157.097 7.056H155.615V8.634H157.097ZM161.047 7.548V9H160.609V7.548L158.929 4.8H159.403L160.843 7.158L162.283 4.8H162.727L161.047 7.548ZM164.986 4.8H166.696C167.14 4.8 167.532 4.89 167.872 5.07C168.212 5.246 168.476 5.494 168.664 5.814C168.852 6.13 168.946 6.492 168.946 6.9C168.946 7.308 168.852 7.672 168.664 7.992C168.476 8.308 168.212 8.556 167.872 8.736C167.532 8.912 167.14 9 166.696 9H164.986V4.8ZM166.672 8.616C167.04 8.616 167.362 8.544 167.638 8.4C167.914 8.252 168.128 8.05 168.28 7.794C168.432 7.534 168.508 7.236 168.508 6.9C168.508 6.564 168.432 6.268 168.28 6.012C168.128 5.752 167.914 5.55 167.638 5.406C167.362 5.258 167.04 5.184 166.672 5.184H165.43V8.616H166.672ZM172.518 7.878H170.178L169.674 9H169.212L171.132 4.8H171.57L173.49 9H173.022L172.518 7.878ZM172.356 7.518L171.348 5.262L170.34 7.518H172.356ZM175.379 7.548V9H174.941V7.548L173.261 4.8H173.735L175.175 7.158L176.615 4.8H177.059L175.379 7.548ZM181.154 9.036C180.738 9.036 180.36 8.944 180.02 8.76C179.684 8.572 179.42 8.316 179.228 7.992C179.04 7.668 178.946 7.304 178.946 6.9C178.946 6.496 179.04 6.132 179.228 5.808C179.42 5.484 179.684 5.23 180.02 5.046C180.36 4.858 180.738 4.764 181.154 4.764C181.57 4.764 181.944 4.856 182.276 5.04C182.612 5.224 182.876 5.48 183.068 5.808C183.26 6.132 183.356 6.496 183.356 6.9C183.356 7.304 183.26 7.67 183.068 7.998C182.876 8.322 182.612 8.576 182.276 8.76C181.944 8.944 181.57 9.036 181.154 9.036ZM181.154 8.64C181.486 8.64 181.786 8.566 182.054 8.418C182.322 8.266 182.532 8.058 182.684 7.794C182.836 7.526 182.912 7.228 182.912 6.9C182.912 6.572 182.836 6.276 182.684 6.012C182.532 5.744 182.322 5.536 182.054 5.388C181.786 5.236 181.486 5.16 181.154 5.16C180.822 5.16 180.52 5.236 180.248 5.388C179.98 5.536 179.768 5.744 179.612 6.012C179.46 6.276 179.384 6.572 179.384 6.9C179.384 7.228 179.46 7.526 179.612 7.794C179.768 8.058 179.98 8.266 180.248 8.418C180.52 8.566 180.822 8.64 181.154 8.64ZM184.795 5.184V6.834H186.967V7.218H184.795V9H184.351V4.8H187.231V5.184H184.795ZM190.534 5.184H189.058V4.8H192.454V5.184H190.978V9H190.534V5.184ZM196.673 4.8V9H196.235V7.062H193.607V9H193.163V4.8H193.607V6.672H196.235V4.8H196.673ZM201.014 8.616V9H198.044V4.8H200.924V5.184H198.488V6.678H200.66V7.056H198.488V8.616H201.014ZM209.394 4.8L207.978 9H207.51L206.28 5.418L205.044 9H204.582L203.166 4.8H203.622L204.834 8.412L206.088 4.8H206.502L207.738 8.43L208.968 4.8H209.394ZM213.178 8.616V9H210.208V4.8H213.088V5.184H210.652V6.678H212.824V7.056H210.652V8.616H213.178ZM217.192 8.616V9H214.222V4.8H217.102V5.184H214.666V6.678H216.838V7.056H214.666V8.616H217.192ZM219.538 7.026L218.68 7.896V9H218.236V4.8H218.68V7.338L221.146 4.8H221.656L219.838 6.702L221.782 9H221.254L219.538 7.026Z" fill="black"/>
<defs>
<filter id="filter0_f" x="285.563" y="21.5634" width="14.8731" height="14.8731" filterUnits="userSpaceOnUse" color-interpolation-filters="sRGB">
<feFlood flood-opacity="0" result="BackgroundImageFix"/>
<feBlend mode="normal" in="SourceGraphic" in2="BackgroundImageFix" result="shape"/>
<feGaussianBlur stdDeviation="2.71828" result="effect1_foregroundBlur"/>
</filter>
<filter id="filter1_f" x="214.563" y="36.5634" width="14.8731" height="14.8731" filterUnits="userSpaceOnUse" color-interpolation-filters="sRGB">
<feFlood flood-opacity="0" result="BackgroundImageFix"/>
<feBlend mode="normal" in="SourceGraphic" in2="BackgroundImageFix" result="shape"/>
<feGaussianBlur stdDeviation="2.71828" result="effect1_foregroundBlur"/>
</filter>
<filter id="filter2_f" x="154.563" y="100.563" width="14.8731" height="14.8731" filterUnits="userSpaceOnUse" color-interpolation-filters="sRGB">
<feFlood flood-opacity="0" result="BackgroundImageFix"/>
<feBlend mode="normal" in="SourceGraphic" in2="BackgroundImageFix" result="shape"/>
<feGaussianBlur stdDeviation="2.71828" result="effect1_foregroundBlur"/>
</filter>
<filter id="filter3_f" x="94.5634" y="156.563" width="14.8731" height="14.8731" filterUnits="userSpaceOnUse" color-interpolation-filters="sRGB">
<feFlood flood-opacity="0" result="BackgroundImageFix"/>
<feBlend mode="normal" in="SourceGraphic" in2="BackgroundImageFix" result="shape"/>
<feGaussianBlur stdDeviation="2.71828" result="effect1_foregroundBlur"/>
</filter>
<filter id="filter4_f" x="34.5634" y="110.563" width="14.8731" height="14.8731" filterUnits="userSpaceOnUse" color-interpolation-filters="sRGB">
<feFlood flood-opacity="0" result="BackgroundImageFix"/>
<feBlend mode="normal" in="SourceGraphic" in2="BackgroundImageFix" result="shape"/>
<feGaussianBlur stdDeviation="2.71828" result="effect1_foregroundBlur"/>
</filter>
<linearGradient id="paint0_linear" x1="19.8602" y1="-10.0497" x2="19.8602" y2="177" gradientUnits="userSpaceOnUse">
<stop stop-color="#564CE9"/>
<stop offset="1" stop-color="white" stop-opacity="0.4"/>
</linearGradient>
</defs>
</svg>
