<svg width="102" height="65" viewBox="0 0 102 65" fill="none" xmlns="http://www.w3.org/2000/svg">
<path d="M2.81055 43.2148C2.81055 42.2839 2.86133 41.429 2.96289 40.6504C3.08138 39.8548 3.25065 39 3.4707 38.0859H8.57422V40.168C8.57422 42.5208 8.92969 44.3151 9.64062 45.5508C10.3516 46.7865 11.4434 47.4043 12.916 47.4043C14.1686 47.4043 15.0996 47.0911 15.709 46.4648C16.3353 45.8216 16.6484 44.8906 16.6484 43.6719C16.6484 43.1979 16.5977 42.707 16.4961 42.1992C16.4115 41.6745 16.2507 41.1243 16.0137 40.5488C15.7936 39.9733 15.4889 39.3555 15.0996 38.6953C14.7103 38.0352 14.2109 37.3242 13.6016 36.5625L6.92383 27.9551C5.72201 26.4147 4.78255 24.8659 4.10547 23.3086C3.42839 21.7344 3.08984 19.9909 3.08984 18.0781C3.08984 16.8086 3.26758 15.6322 3.62305 14.5488C3.99544 13.4486 4.52018 12.4837 5.19727 11.6543C5.89128 10.8079 6.72917 10.1139 7.71094 9.57227C8.70964 9.01367 9.84375 8.63281 11.1133 8.42969V2.64062H15.8359V8.48047C17.224 8.71745 18.3835 9.14062 19.3145 9.75C20.2624 10.3594 21.0241 11.0788 21.5996 11.9082C22.1751 12.7207 22.5814 13.6094 22.8184 14.5742C23.0723 15.5221 23.1992 16.4785 23.1992 17.4434C23.1992 18.3743 23.1315 19.2376 22.9961 20.0332C22.8607 20.8118 22.6999 21.6751 22.5137 22.623H17.4355V20.541C17.4355 18.2389 17.0716 16.4785 16.3438 15.2598C15.6159 14.0241 14.5664 13.4062 13.1953 13.4062C11.9596 13.4062 11.0202 13.7533 10.377 14.4473C9.75065 15.1243 9.4375 16.0384 9.4375 17.1895C9.4375 18.1712 9.63216 19.0684 10.0215 19.8809C10.4277 20.6764 10.9525 21.4974 11.5957 22.3438L19.0859 32.043C19.7799 32.957 20.3978 33.8372 20.9395 34.6836C21.4811 35.5299 21.9297 36.3763 22.2852 37.2227C22.6576 38.069 22.9368 38.9408 23.123 39.8379C23.3092 40.7181 23.4023 41.6576 23.4023 42.6562C23.4023 43.9089 23.2246 45.0599 22.8691 46.1094C22.5306 47.1589 22.0312 48.0898 21.3711 48.9023C20.7279 49.7148 19.9408 50.3919 19.0098 50.9336C18.0788 51.4753 17.0293 51.8646 15.8613 52.1016V58.4746H11.1387V52.3047C9.5306 52.1523 8.19336 51.7884 7.12695 51.2129C6.06055 50.6374 5.20573 49.9349 4.5625 49.1055C3.9362 48.276 3.48763 47.3535 3.2168 46.3379C2.94596 45.3223 2.81055 44.2812 2.81055 43.2148ZM29.0898 43.0879C29.0898 41.5475 29.3014 39.8717 29.7246 38.0605H34.8535V41.6152C34.8535 43.6803 35.1497 45.1699 35.7422 46.084C36.3516 46.9811 37.3418 47.4297 38.7129 47.4297C40.1009 47.4297 41.0827 46.9303 41.6582 45.9316C42.2337 44.9329 42.5215 43.4941 42.5215 41.6152V33.2363C42.5215 32.153 42.4284 31.2812 42.2422 30.6211C42.056 29.944 41.8021 29.4193 41.4805 29.0469C41.1589 28.6576 40.778 28.3952 40.3379 28.2598C39.9147 28.1243 39.4492 28.0566 38.9414 28.0566C37.9935 28.0566 37.181 28.3275 36.5039 28.8691C35.8268 29.3939 35.2682 30.0286 34.8281 30.7734H29.9785V8.63281H48.6152V14.4473H35.4629V25.1621C36.1738 24.3496 37.0625 23.7148 38.1289 23.2578C39.2122 22.8008 40.3379 22.5723 41.5059 22.5723C44.1973 22.5723 46.1693 23.4779 47.4219 25.2891C48.6745 27.1003 49.3008 29.7663 49.3008 33.2871V40.6504C49.3008 42.8848 49.013 44.7552 48.4375 46.2617C47.862 47.7513 47.1003 48.9531 46.1523 49.8672C45.2044 50.7643 44.1042 51.4076 42.8516 51.7969C41.6159 52.1862 40.3379 52.3809 39.0176 52.3809C37.4095 52.3809 35.9876 52.1693 34.752 51.7461C33.5163 51.306 32.4753 50.6797 31.6289 49.8672C30.7995 49.0547 30.1647 48.0814 29.7246 46.9473C29.3014 45.7962 29.0898 44.5098 29.0898 43.0879ZM54.709 21.0234C54.709 19.1276 54.8783 17.4941 55.2168 16.123C55.5723 14.735 56.0293 13.5755 56.5879 12.6445C57.1634 11.6966 57.8236 10.9349 58.5684 10.3594C59.3132 9.78385 60.0749 9.34375 60.8535 9.03906C61.6491 8.71745 62.4362 8.50586 63.2148 8.4043C64.0104 8.30273 64.7383 8.25195 65.3984 8.25195C66.0247 8.25195 66.7188 8.30273 67.4805 8.4043C68.2591 8.48893 69.0378 8.68359 69.8164 8.98828C70.612 9.27604 71.3737 9.70768 72.1016 10.2832C72.8464 10.8418 73.498 11.5951 74.0566 12.543C74.6322 13.4909 75.0892 14.6589 75.4277 16.0469C75.7832 17.4349 75.9609 19.0938 75.9609 21.0234V39.3555C75.9609 41.2513 75.7832 42.8932 75.4277 44.2812C75.0892 45.6523 74.6322 46.8203 74.0566 47.7852C73.4811 48.75 72.821 49.5371 72.0762 50.1465C71.3314 50.7389 70.5697 51.2044 69.791 51.543C69.0124 51.8646 68.2337 52.0846 67.4551 52.2031C66.6934 52.3216 66.0078 52.3809 65.3984 52.3809C64.7214 52.3809 63.985 52.3216 63.1895 52.2031C62.3939 52.0846 61.5983 51.8646 60.8027 51.543C60.0072 51.2044 59.237 50.7389 58.4922 50.1465C57.7643 49.554 57.1211 48.7754 56.5625 47.8105C56.0039 46.8457 55.5553 45.6693 55.2168 44.2812C54.8783 42.8932 54.709 41.2513 54.709 39.3555V21.0234ZM61.4375 42.123C61.4375 43.9173 61.7591 45.2207 62.4023 46.0332C63.0625 46.8457 64.0612 47.252 65.3984 47.252C66.7018 47.252 67.6751 46.8457 68.3184 46.0332C68.9616 45.2207 69.2832 43.9173 69.2832 42.123V18.6367C69.2832 16.7409 68.9616 15.3613 68.3184 14.498C67.6751 13.6348 66.7018 13.2031 65.3984 13.2031C64.0612 13.2031 63.0625 13.6348 62.4023 14.498C61.7591 15.3613 61.4375 16.7409 61.4375 18.6367V42.123Z" fill="white"/>
<path d="M83.209 37.9609H84.4922L82.6582 50.9102H81.375L83.209 37.9609ZM87.9727 38.9922H89.9531L90.9141 42.8652C91.0156 43.2949 91.0957 43.7051 91.1543 44.0957C91.2129 44.4824 91.2695 44.8477 91.3242 45.1914H91.3711C91.4258 44.8477 91.4824 44.4824 91.541 44.0957C91.5996 43.7051 91.6797 43.2949 91.7812 42.8652L92.7715 38.9922H94.7109V49H93.293V45.6895C93.293 45.1816 93.2969 44.6934 93.3047 44.2246C93.3164 43.7559 93.3301 43.3262 93.3457 42.9355C93.3613 42.541 93.3789 42.1934 93.3984 41.8926C93.418 41.5918 93.4355 41.3535 93.4512 41.1777H93.3398L91.8281 47.7109H90.8672L89.3438 41.1777H89.2324C89.248 41.3535 89.2656 41.5918 89.2852 41.8926C89.3047 42.1934 89.3223 42.541 89.3379 42.9355C89.3535 43.3262 89.3652 43.7559 89.373 44.2246C89.3848 44.6934 89.3906 45.1816 89.3906 45.6895V49H87.9727V38.9922ZM98.6367 49.0879C98.4766 49.0879 98.3027 49.0742 98.1152 49.0469C97.9277 49.0234 97.7422 48.9707 97.5586 48.8887C97.375 48.8066 97.1973 48.6914 97.0254 48.543C96.8574 48.3906 96.707 48.1914 96.5742 47.9453C96.4453 47.6992 96.3418 47.3965 96.2637 47.0371C96.1855 46.6738 96.1465 46.2422 96.1465 45.7422V42.1973C96.1465 41.6934 96.1855 41.2637 96.2637 40.9082C96.3457 40.5488 96.4531 40.248 96.5859 40.0059C96.7188 39.7598 96.8691 39.5645 97.0371 39.4199C97.209 39.2754 97.3867 39.166 97.5703 39.0918C97.7578 39.0137 97.9434 38.9629 98.127 38.9395C98.3105 38.916 98.4805 38.9043 98.6367 38.9043C98.7852 38.9043 98.9492 38.916 99.1289 38.9395C99.3125 38.959 99.4941 39.0059 99.6738 39.0801C99.8574 39.1504 100.035 39.2578 100.207 39.4023C100.379 39.543 100.531 39.7363 100.664 39.9824C100.797 40.2246 100.902 40.5273 100.98 40.8906C101.062 41.25 101.104 41.6855 101.104 42.1973V45.7422C101.104 46.2383 101.062 46.666 100.98 47.0254C100.898 47.3809 100.791 47.6836 100.658 47.9336C100.525 48.1797 100.371 48.3789 100.195 48.5312C100.023 48.6797 99.8457 48.7969 99.6621 48.8828C99.4824 48.9648 99.3027 49.0195 99.123 49.0469C98.9434 49.0742 98.7812 49.0879 98.6367 49.0879ZM98.6367 47.9453C98.7852 47.9453 98.9141 47.9199 99.0234 47.8691C99.1367 47.8184 99.2285 47.7305 99.2988 47.6055C99.373 47.4805 99.4277 47.3164 99.4629 47.1133C99.502 46.9062 99.5215 46.6465 99.5215 46.334V41.7812C99.5215 41.4609 99.502 41.1934 99.4629 40.9785C99.4277 40.7637 99.373 40.5918 99.2988 40.4629C99.2285 40.3301 99.1367 40.2363 99.0234 40.1816C98.9141 40.127 98.7852 40.0996 98.6367 40.0996C98.4844 40.0996 98.3516 40.127 98.2383 40.1816C98.125 40.2363 98.0312 40.3301 97.957 40.4629C97.8828 40.5918 97.8262 40.7637 97.7871 40.9785C97.752 41.1934 97.7344 41.4609 97.7344 41.7812V46.334C97.7344 46.6465 97.752 46.9062 97.7871 47.1133C97.8262 47.3164 97.8828 47.4805 97.957 47.6055C98.0312 47.7305 98.125 47.8184 98.2383 47.8691C98.3516 47.9199 98.4844 47.9453 98.6367 47.9453Z" fill="white"/>
</svg>
